<svg xmlns="http://www.w3.org/2000/svg" xmlns:xlink="http://www.w3.org/1999/xlink" viewBox="0,0,256,256" width="150px" height="150px" fill-rule="nonzero"><g fill="none" fill-rule="nonzero" stroke="none" stroke-width="1" stroke-linecap="butt" stroke-linejoin="miter" stroke-miterlimit="10" stroke-dasharray="" stroke-dashoffset="0" font-family="none" font-weight="none" font-size="none" text-anchor="none" style="mix-blend-mode: normal"><g transform="scale(2.56,2.56)"><path d="M50,12c-20.987,0 -38,17.013 -38,38c0,20.987 17.013,38 38,38c20.987,0 38,-17.013 38,-38c0,-20.987 -17.013,-38 -38,-38z" fill="#ffffff"></path><path d="M64.483,78.034c-1.371,0 -2.483,1.112 -2.483,2.483c0,1.371 1.112,2.483 2.483,2.483c1.371,0 2.483,-1.112 2.483,-2.483c0,-1.371 -1.112,-2.483 -2.483,-2.483zM14,49c-0.552,0 -1,0.448 -1,1c0,0.552 0.448,1 1,1c0.552,0 1,-0.448 1,-1c0,-0.552 -0.448,-1 -1,-1z" fill="#ffffff"></path><path d="M78,13c-0.552,0 -1,0.448 -1,1c0,0.552 0.448,1 1,1c0.552,0 1,-0.448 1,-1c0,-0.552 -0.448,-1 -1,-1z" fill="#ffffff"></path><path d="M72,7c-2.209,0 -4,1.791 -4,4c0,2.209 1.791,4 4,4c2.209,0 4,-1.791 4,-4c0,-2.209 -1.791,-4 -4,-4z" fill="#ffffff"></path><path d="M76,71c-1.105,0 -2,0.895 -2,2c0,1.105 0.895,2 2,2c1.105,0 2,-0.895 2,-2c0,-1.105 -0.895,-2 -2,-2zM15,70c-2.209,0 -4,1.791 -4,4c0,2.209 1.791,4 4,4c2.209,0 4,-1.791 4,-4c0,-2.209 -1.791,-4 -4,-4z" fill="#ffffff"></path><path d="M41,23c-1.105,0 -2,0.895 -2,2c0,1.105 0.895,2 2,2c1.105,0 2,-0.895 2,-2c0,-1.105 -0.895,-2 -2,-2z" fill="#ee3e54"></path><path d="M86,30c-0.552,0 -1,0.448 -1,1c0,0.552 0.448,1 1,1c0.552,0 1,-0.448 1,-1c0,-0.552 -0.448,-1 -1,-1z" fill="#ffffff"></path><path d="M22,56c-1.105,0 -2,0.895 -2,2c0,1.105 0.895,2 2,2c1.105,0 2,-0.895 2,-2c0,-1.105 -0.895,-2 -2,-2z" fill="#ee3e54"></path><path d="M81,54c-1.105,0 -2,0.895 -2,2c0,1.105 0.895,2 2,2c1.105,0 2,-0.895 2,-2c0,-1.105 -0.895,-2 -2,-2z" fill="#ffffff"></path><path d="M65.419,73h-31.438c-4.021,0 -7.281,-3.26 -7.281,-7.281v-31.438c0,-4.021 3.26,-7.281 7.281,-7.281h31.438c4.021,0 7.281,3.26 7.281,7.281v31.438c0,4.021 -3.26,7.281 -7.281,7.281z" fill="#ee3e54"></path><path d="M65.419,73.7h-31.438c-4.401,0 -7.981,-3.58 -7.981,-7.981v-31.438c0,-4.401 3.581,-7.981 7.981,-7.981h31.438c4.401,0 7.981,3.58 7.981,7.981v31.438c0,4.401 -3.58,7.981 -7.981,7.981zM33.981,27.7c-3.629,0 -6.581,2.952 -6.581,6.581v31.438c0,3.629 2.952,6.581 6.581,6.581h31.438c3.629,0 6.581,-2.952 6.581,-6.581v-31.438c0,-3.629 -2.952,-6.581 -6.581,-6.581z" fill="#472b29"></path><path d="M30.2,40.167c-0.276,0 -0.5,-0.224 -0.5,-0.5v-4.333c0,-2.941 2.393,-5.334 5.333,-5.334h14c0.276,0 0.5,0.224 0.5,0.5c0,0.276 -0.224,0.5 -0.5,0.5h-14c-2.389,0 -4.333,1.944 -4.333,4.333v4.333c0,0.277 -0.224,0.501 -0.5,0.501z" fill="#472b29"></path><path d="M41.283,70h-6.25c-2.94,0 -5.333,-2.393 -5.333,-5.333v-20.334c0,-0.276 0.224,-0.5 0.5,-0.5c0.276,0 0.5,0.224 0.5,0.5v20.333c0,2.39 1.944,4.334 4.333,4.334h6.25c0.276,0 0.5,0.224 0.5,0.5c0,0.276 -0.223,0.5 -0.5,0.5z" fill="#472b29"></path><path d="M64.367,70h-19.75c-0.276,0 -0.5,-0.224 -0.5,-0.5c0,-0.276 0.224,-0.5 0.5,-0.5h19.75c2.389,0 4.333,-1.944 4.333,-4.333v-5.083c0,-0.276 0.224,-0.5 0.5,-0.5c0.276,0 0.5,0.224 0.5,0.5v5.083c0,2.94 -2.393,5.333 -5.333,5.333z" fill="#472b29"></path><path d="M69.2,56.167c-0.276,0 -0.5,-0.224 -0.5,-0.5v-20.334c0,-2.389 -1.944,-4.333 -4.333,-4.333h-2.75c-0.276,0 -0.5,-0.224 -0.5,-0.5c0,-0.276 0.224,-0.5 0.5,-0.5h2.75c2.94,0 5.333,2.393 5.333,5.333v20.333c0,0.277 -0.224,0.501 -0.5,0.501z" fill="#472b29"></path><path d="M58.2,31h-6.25c-0.276,0 -0.5,-0.224 -0.5,-0.5c0,-0.276 0.224,-0.5 0.5,-0.5h6.25c0.276,0 0.5,0.224 0.5,0.5c0,0.276 -0.224,0.5 -0.5,0.5z" fill="#472b29"></path><path d="M50.5,37.256c-0.04,0 -0.08,0 -0.12,0.01c-2.82,0.05 -5.11,2.22 -5.35,4.99l-1.03,10c0,2.76 2.24,4 5,4h2.8c0,0.03 -0.01,0.06 -0.01,0.09c-0.32,3.08 -0.41,3.91 -3.29,3.91h-5.5l-1,3h6.5c5.57,0 5.96,-3.65 6.28,-6.59c0.06,-0.54 0.12,-1.1 0.21,-1.74l2.01,-17.67zM51.14,53.256h-1.83c-1.28,0 -2.31,-1.03 -2.31,-2.31l1,-8.69c0.11,-1.28 1.7,-1.98 3,-2h2c0.33,0 0.54,0.09 0.67,0.23c0.27,0.27 0.21,0.75 0.15,1.16l-1.14,7.23l-0.55,3.53c-0.07,0.49 -0.49,0.85 -0.99,0.85z" fill="#ffffff"></path><path d="M48.5,63.756h-7.194l1.333,-4h5.86c2.305,0 2.463,-0.354 2.744,-3h-2.243c-3.393,0 -5.5,-1.725 -5.5,-4.5l1.033,-10.051c0.262,-3.028 2.75,-5.362 5.795,-5.438c0.07,-0.011 0.129,-0.011 0.172,-0.011h7.06l-2.073,18.227c-0.084,0.602 -0.142,1.122 -0.197,1.621l-0.013,0.117c-0.324,2.976 -0.766,7.035 -6.777,7.035zM42.694,62.756h5.806c5.114,0 5.454,-3.117 5.782,-6.132l0.015,-0.13c0.056,-0.509 0.114,-1.038 0.199,-1.638l1.945,-17.101h-5.941v-0.5l-0.03,0.5c-2.632,0.056 -4.722,2.005 -4.942,4.543l-1.031,10.008c0.002,3.197 3.447,3.449 4.502,3.449h3.3l-0.011,0.626c-0.322,3.098 -0.455,4.374 -3.789,4.374h-5.14zM51.14,53.756h-1.83c-1.549,0 -2.81,-1.261 -2.81,-2.811l1.003,-8.747c0.133,-1.549 1.897,-2.418 3.489,-2.442h2.008c0.449,0 0.797,0.132 1.037,0.392c0.443,0.441 0.339,1.148 0.277,1.57l-1.69,10.766c-0.105,0.734 -0.729,1.272 -1.484,1.272zM51,40.756c-1.137,0.018 -2.422,0.612 -2.502,1.543l-1.001,8.704c0.003,0.94 0.815,1.753 1.813,1.753h1.83c0.252,0 0.46,-0.177 0.495,-0.42l1.691,-10.769c0.025,-0.167 0.092,-0.626 -0.009,-0.728c-0.055,-0.058 -0.167,-0.084 -0.317,-0.084h-2z" fill="#472b29"></path></g></g></svg>