<?xml version="1.0" standalone="no"?>
<!DOCTYPE svg PUBLIC "-//W3C//DTD SVG 20010904//EN"
 "http://www.w3.org/TR/2001/REC-SVG-20010904/DTD/svg10.dtd">
<svg version="1.0" xmlns="http://www.w3.org/2000/svg"
 width="640.000000pt" height="480.000000pt" viewBox="0 0 640.000000 480.000000"
 preserveAspectRatio="xMidYMid meet">
<metadata>
Created by potrace 1.16, written by Peter Selinger 2001-2019
</metadata>
<g transform="translate(0.000000,480.000000) scale(0.100000,-0.100000)"
fill="#000000" stroke="none">
<path d="M0 4736 c0 -36 5 -68 10 -71 6 -3 10 -15 10 -26 0 -11 -4 -17 -10
-14 -7 4 -10 -54 -10 -166 0 -151 2 -174 18 -186 16 -14 16 -14 0 -9 -17 5
-18 -105 -18 -2129 l0 -2135 1431 0 c1280 0 1432 2 1446 16 12 12 18 13 23 3
5 -8 13 -3 23 16 l15 29 16 -32 c14 -27 46 -45 46 -26 0 4 -24 47 -54 98 -161
272 -198 338 -194 341 2 2 19 -22 37 -53 18 -31 77 -131 130 -222 l99 -165 81
-3 c44 -2 81 1 81 5 -1 4 -6 18 -13 31 -13 23 -11 92 3 92 12 0 20 -44 10 -54
-14 -14 -12 -26 4 -20 8 3 18 -7 26 -25 l12 -31 324 0 c302 0 324 1 324 18 1
16 1 16 14 -1 19 -24 27 -21 20 8 -3 14 -2 25 4 25 5 0 13 -11 16 -25 6 -25
36 -36 36 -13 0 9 3 9 12 0 7 -7 19 -12 27 -12 8 0 11 3 8 7 -4 3 3 17 15 30
18 19 19 23 5 23 -9 0 -17 -7 -17 -15 0 -19 -14 -19 -34 1 -9 8 -21 12 -26 9
-14 -9 -42 14 -33 28 3 6 1 7 -5 3 -7 -4 -12 -14 -12 -22 0 -17 -30 -19 -31
-1 -1 6 -3 25 -5 42 -2 16 2 35 8 42 8 10 5 17 -10 30 -11 10 -23 32 -27 50
-6 30 -5 32 17 27 13 -3 35 -5 49 -5 22 0 25 -4 21 -26 -4 -23 -3 -24 16 -14
28 15 37 31 18 31 -19 0 -21 26 -3 33 8 3 6 9 -8 20 -10 8 -26 12 -33 9 -12
-4 -12 -7 2 -17 17 -13 17 -13 -61 -6 -28 2 -11 19 30 29 43 11 81 11 93 -1
10 -10 82 -9 88 2 3 5 18 11 32 14 20 3 28 0 31 -14 6 -20 15 -24 27 -12 4 4
-8 20 -26 34 -18 15 -30 31 -26 35 4 4 15 1 24 -7 15 -12 16 -11 10 9 -5 16
-3 22 7 22 9 0 17 6 20 13 3 8 7 6 12 -7 5 -11 3 -21 -6 -27 -11 -7 -11 -9 -1
-9 7 0 10 -5 7 -10 -4 -6 -11 -7 -17 -4 -8 5 -9 1 -3 -12 16 -39 19 -67 5 -59
-9 5 -11 4 -6 -4 4 -6 15 -10 24 -9 11 2 17 -3 16 -14 -1 -10 3 -16 9 -15 7 1
13 -8 15 -20 3 -17 0 -21 -12 -17 -22 9 -21 -23 2 -34 23 -12 42 -4 35 14 -3
8 0 14 6 14 6 0 11 -6 11 -14 0 -8 3 -16 8 -19 4 -2 1 -2 -6 0 -8 2 -12 -4
-10 -15 2 -9 10 -16 16 -15 7 2 12 -2 12 -8 0 -8 4 -9 13 0 13 10 27 6 27 -10
0 -19 -46 -13 -67 8 -20 21 -23 22 -32 5 -6 -9 -11 -11 -11 -4 0 6 -9 12 -21
12 -18 0 -17 -3 9 -25 17 -14 38 -25 47 -25 14 0 15 -3 5 -15 -7 -8 -16 -12
-21 -9 -11 6 -39 -20 -39 -35 0 -14 1 -14 39 5 18 9 35 13 38 10 4 -3 1 -6 -5
-6 -7 0 -12 -6 -12 -14 0 -12 40 -14 240 -15 232 0 275 6 215 29 -31 12 -32
28 -2 40 12 5 16 9 10 9 -7 1 -13 6 -13 12 0 8 5 7 15 -1 9 -7 13 -20 10 -29
-7 -23 10 -45 29 -38 10 4 19 1 22 -7 7 -19 52 -17 57 3 4 14 5 14 6 -1 1 -15
11 -18 56 -18 53 0 55 1 45 21 -7 11 -9 23 -6 26 8 8 38 -26 32 -36 -4 -5 61
-10 159 -11 142 -1 165 1 165 15 0 8 5 15 10 15 6 0 10 -7 10 -15 0 -13 14
-15 85 -13 47 1 85 5 85 9 0 4 3 15 7 25 4 12 3 15 -5 10 -7 -4 -12 -3 -12 2
0 13 -39 22 -46 11 -3 -5 2 -9 10 -9 16 0 31 -18 22 -27 -3 -3 -12 0 -20 6 -8
7 -20 10 -26 6 -13 -8 -13 -3 0 30 7 17 15 25 25 22 10 -4 12 -1 8 10 -5 13
-10 12 -29 -11 -13 -15 -36 -28 -54 -30 -33 -4 -38 5 -14 25 13 10 17 10 26
-2 7 -10 8 -6 4 16 -3 17 -3 24 0 18 9 -20 24 -15 24 8 0 17 -5 20 -24 17 -18
-4 -26 0 -30 14 -6 27 3 48 21 48 9 0 22 8 29 18 11 16 13 15 23 -10 5 -14 22
-32 37 -40 28 -13 44 -38 25 -38 -6 0 -11 7 -11 16 0 11 -5 14 -16 10 -9 -3
-22 -6 -30 -6 -8 0 -14 -7 -14 -15 0 -8 7 -15 15 -15 8 0 20 -10 26 -23 6 -12
13 -23 14 -25 1 -1 15 4 31 13 19 10 23 15 12 15 -10 0 -18 5 -18 10 0 15 17
12 46 -7 19 -12 22 -18 12 -25 -9 -7 -6 -8 10 -5 15 4 22 1 19 -6 -2 -7 -10
-12 -18 -12 -8 0 -20 -4 -28 -9 -8 -5 -17 -3 -23 5 -7 11 -8 9 -5 -6 3 -21 7
-22 45 -10 14 4 22 2 22 -5 0 -6 -4 -8 -10 -5 -5 3 -10 -1 -10 -9 0 -17 50
-22 109 -10 29 6 31 9 31 50 0 24 5 44 11 44 5 0 7 -5 3 -12 -5 -8 -2 -9 9 -5
10 3 17 2 17 -3 0 -6 -7 -10 -15 -10 -8 0 -15 -5 -15 -11 0 -6 9 -8 21 -4 17
6 20 4 15 -12 -9 -29 73 -59 89 -33 5 8 11 8 20 0 10 -8 14 -7 18 2 4 10 6 10
6 1 1 -19 76 -17 91 2 8 9 9 15 2 15 -6 0 -14 -5 -17 -10 -8 -13 -16 -12 -39
5 -10 7 -15 19 -11 25 6 9 10 9 16 -1 6 -10 9 -11 9 -1 0 6 8 12 18 12 13 0
14 2 3 9 -7 5 -10 14 -7 20 4 6 2 11 -3 11 -19 0 -12 22 9 27 14 4 17 9 11 17
-6 6 -6 17 -2 24 6 10 19 3 50 -26 l43 -40 -23 -16 -23 -16 24 0 c38 0 48 11
35 37 -7 13 -15 20 -18 16 -4 -3 -7 1 -7 10 0 10 -3 16 -8 15 -13 -5 -54 40
-47 51 4 7 -6 16 -24 22 -36 13 -37 16 -13 42 15 18 15 20 1 15 -12 -5 -19 3
-27 28 -9 30 -8 34 9 34 10 0 19 -5 19 -10 0 -7 7 -7 21 0 11 7 18 18 15 25
-2 7 2 16 10 19 8 3 14 -1 14 -10 0 -8 5 -12 10 -9 6 3 10 -4 10 -17 1 -21 1
-22 11 -4 9 15 7 23 -16 42 -27 23 -55 23 -55 -2 0 -8 -7 -14 -15 -14 -14 0
-13 3 1 25 9 14 15 25 13 26 -2 0 -15 3 -29 5 -27 5 -42 23 -33 38 4 6 8 5 11
-2 5 -17 30 -15 48 3 14 13 14 15 -1 15 -12 0 -15 5 -10 18 5 13 3 14 -6 5
-12 -12 -39 -7 -39 8 0 5 7 9 16 9 11 0 14 5 10 16 -3 9 -6 18 -6 20 0 2 -6 4
-14 4 -9 0 -12 7 -9 19 3 12 11 17 19 14 8 -3 22 1 32 9 9 9 24 16 32 16 8 0
27 3 43 6 29 7 35 -2 15 -22 -9 -9 -8 -12 6 -12 13 0 17 7 14 27 -3 24 -8 27
-40 29 -21 0 -38 -4 -38 -9 0 -6 -9 -2 -19 7 -12 11 -21 13 -25 7 -4 -5 1 -14
10 -19 14 -8 14 -10 1 -15 -9 -3 -18 1 -21 9 -3 8 -13 14 -21 14 -9 0 -13 5
-10 10 3 6 -3 10 -14 10 -12 0 -21 4 -21 8 0 9 7 10 55 13 32 2 57 29 26 29
-15 0 -21 6 -21 21 0 12 -8 23 -20 26 -11 3 -20 9 -20 14 0 5 7 6 16 2 9 -3
20 0 26 8 8 12 9 12 5 -1 -2 -8 6 -23 19 -32 27 -22 34 -22 34 -3 0 11 8 13
30 8 23 -4 30 -2 30 10 0 9 -9 19 -20 22 -11 3 -20 13 -20 21 0 13 -5 16 -39
18 -23 2 -24 23 -1 29 20 5 29 37 10 37 -5 0 -10 7 -10 15 0 18 -1 18 -36 0
-29 -15 -47 -4 -27 16 13 13 102 19 109 8 8 -14 24 -11 24 5 0 8 7 17 16 20
25 10 36 7 28 -7 -4 -6 2 -4 13 5 26 23 32 23 26 -2 -3 -11 0 -20 6 -20 6 0
11 -9 11 -20 0 -23 -10 -26 -29 -8 -15 16 -111 17 -111 2 0 -7 7 -14 15 -18 8
-3 15 -1 15 5 0 6 7 8 16 5 9 -4 23 -1 30 5 11 9 14 8 14 -4 0 -9 10 -17 22
-19 18 -2 23 -10 25 -37 2 -19 -2 -40 -7 -47 -6 -6 -7 -14 -2 -16 5 -1 12 -24
15 -50 5 -39 4 -48 -8 -48 -8 0 -15 -4 -15 -10 0 -5 7 -10 16 -10 12 0 15 -7
12 -30 -3 -17 -1 -33 4 -36 19 -12 6 -24 -19 -18 -27 6 -27 6 -8 -9 33 -27 45
-21 43 21 0 22 2 44 6 50 3 6 2 13 -2 16 -13 8 -13 68 0 83 7 8 7 13 0 13 -13
0 -21 59 -9 67 6 3 15 -1 22 -10 15 -20 25 -13 18 13 -4 15 -11 18 -29 14 -23
-6 -24 -4 -14 20 6 16 6 26 0 26 -11 0 -1 32 14 42 6 4 4 9 -7 14 -9 3 -17 13
-17 21 0 10 6 13 16 9 8 -3 12 -2 9 4 -3 6 -13 10 -20 10 -10 0 -14 9 -13 25
2 23 18 37 18 15 0 -5 9 -10 21 -10 11 0 18 4 15 9 -4 5 -3 11 1 14 5 2 3 3
-3 1 -5 -1 -21 4 -35 12 l-24 13 23 1 c13 0 20 4 17 10 -3 6 -15 10 -27 10
-17 0 -18 3 -8 15 7 8 16 12 22 9 5 -3 15 0 23 6 10 9 19 9 28 3 8 -7 19 -3
35 13 12 13 18 24 13 24 -5 0 -12 -4 -15 -9 -3 -5 -20 -8 -38 -7 -26 2 -32 6
-30 20 2 12 -1 15 -8 11 -7 -4 -9 -17 -6 -29 5 -21 5 -21 -14 2 -18 21 -47 32
-35 12 3 -5 -1 -22 -9 -38 -13 -26 -13 -31 2 -47 16 -17 16 -17 0 -12 -10 3
-20 2 -23 -3 -4 -6 3 -10 14 -10 12 0 21 -4 21 -10 0 -14 -33 -12 -49 2 -11
11 -13 10 -9 -2 3 -8 14 -16 26 -18 11 -2 26 -9 32 -17 9 -10 7 -15 -8 -19
-21 -7 -106 -1 -121 8 -5 4 -12 2 -16 -4 -9 -14 -45 -12 -45 3 0 8 -3 8 -8 1
-9 -13 -42 -26 -42 -16 0 5 5 13 12 20 9 9 9 12 0 12 -7 0 -12 5 -12 11 0 8 4
8 14 0 19 -16 49 -2 43 20 -3 11 -1 22 4 25 5 3 9 -2 9 -11 0 -33 35 -11 38
23 3 28 6 31 18 21 13 -10 14 -8 10 14 -3 20 0 28 15 32 24 8 24 21 0 35 -16
8 -21 6 -26 -11 -5 -15 -13 -19 -27 -16 -16 5 -19 2 -15 -14 4 -16 1 -20 -15
-17 -12 2 -23 9 -26 16 -2 7 0 12 5 11 20 -4 23 2 9 17 -9 8 -20 12 -26 9 -15
-9 -50 4 -50 20 0 17 23 26 40 15 10 -6 8 -9 -6 -13 -16 -4 -16 -5 3 -6 12 0
24 3 28 8 3 5 21 7 41 4 47 -8 66 16 26 33 -20 8 -29 8 -35 0 -6 -8 -10 -7
-14 2 -2 6 -11 12 -18 12 -7 0 -15 3 -17 8 -3 7 -62 42 -71 42 -3 0 -8 -8 -10
-17 -4 -17 -5 -17 -6 0 0 9 -5 17 -10 17 -20 0 -41 -13 -41 -25 0 -18 -30 -27
-46 -14 -11 9 -14 9 -14 0 0 -6 6 -14 14 -17 19 -7 20 -134 1 -134 -6 0 -20
-9 -30 -20 -22 -25 -35 -26 -36 -2 0 13 -2 14 -6 2 -3 -8 -12 -19 -19 -23 -21
-12 -17 -32 11 -47 25 -13 35 -40 15 -40 -5 0 -10 7 -10 15 0 20 -9 19 -33 -3
-19 -16 -20 -16 -8 5 15 30 14 33 -14 33 -27 0 -30 7 -15 30 6 10 10 11 10 3
0 -7 4 -13 10 -13 5 0 7 6 4 14 -3 9 1 13 12 13 9 -1 19 3 21 10 5 13 -29 12
-60 -2 -10 -4 -21 -4 -25 0 -4 4 -1 10 6 12 6 3 12 14 12 25 0 21 0 21 21 2
22 -19 22 -19 14 6 -5 14 -8 31 -8 38 0 6 -4 12 -9 12 -4 0 -8 -7 -8 -15 0 -9
-6 -12 -16 -8 -11 4 -14 0 -11 -18 2 -13 2 -18 0 -12 -3 7 -8 13 -13 13 -5 0
-7 7 -4 15 5 12 1 14 -17 11 -13 -3 -25 -5 -26 -7 -4 -2 -20 -6 -33 -8 -5 0
-10 -6 -10 -12 0 -5 5 -7 10 -4 6 3 10 1 10 -5 0 -7 13 -10 32 -8 20 2 33 -2
36 -11 3 -8 0 -11 -7 -7 -6 4 -11 3 -11 -1 0 -5 9 -14 20 -21 27 -17 25 -30
-4 -28 -18 1 -22 4 -14 14 8 9 6 12 -5 12 -8 0 -18 6 -20 13 -4 7 -6 6 -6 -4
-1 -9 -8 -19 -16 -23 -8 -3 -15 -10 -15 -16 0 -14 27 -13 33 3 3 6 6 2 6 -10
1 -13 -2 -22 -6 -22 -20 3 -57 -3 -45 -8 6 -2 12 -9 12 -14 0 -4 -7 -6 -15 -3
-8 4 -15 1 -15 -5 0 -6 7 -11 15 -11 8 0 15 -7 15 -15 0 -19 7 -19 26 -1 18
19 18 26 -1 26 -8 0 -15 5 -15 10 0 16 18 11 38 -10 12 -13 25 -18 35 -14 18
7 23 24 7 24 -5 0 -10 5 -10 10 0 19 31 10 39 -12 10 -26 -5 -52 -26 -44 -18
7 -17 3 8 -25 19 -21 21 -22 17 -4 -1 11 2 20 8 20 6 0 18 8 28 18 12 11 26
15 42 11 21 -5 24 -3 24 19 0 17 -7 28 -20 32 -24 8 -26 21 -4 29 12 5 15 2
10 -10 -5 -12 -1 -14 16 -8 17 5 20 3 14 -12 -6 -18 -5 -18 9 0 14 18 16 18
33 3 10 -10 21 -15 23 -12 3 2 6 -6 6 -18 2 -17 0 -19 -7 -7 -5 8 -10 11 -10
5 0 -5 -7 -1 -15 9 -9 12 -15 14 -15 7 0 -7 -9 -26 -21 -42 -15 -21 -16 -27
-5 -23 8 3 18 14 21 25 4 10 11 19 16 19 18 0 21 -29 5 -46 -10 -9 -14 -21
-11 -28 3 -6 8 -19 11 -29 4 -9 13 -17 20 -17 8 0 14 -4 14 -10 0 -5 -4 -10
-9 -10 -5 0 -16 -3 -25 -6 -11 -4 -16 0 -17 12 0 18 -1 17 -9 -1 -12 -28 -12
-37 0 -30 5 3 10 2 10 -3 0 -6 6 -10 13 -9 30 1 47 -4 47 -13 0 -5 -9 -10 -20
-10 -11 0 -20 -5 -20 -11 0 -5 5 -7 10 -4 6 3 10 1 10 -4 0 -6 -5 -11 -11 -11
-7 0 -5 -10 5 -25 9 -13 16 -27 16 -30 0 -10 -44 6 -52 19 -5 7 -8 3 -8 -8 0
-16 -3 -17 -12 -8 -7 7 -19 12 -27 12 -13 -1 -12 -4 4 -16 11 -8 30 -13 42
-11 26 5 67 -33 46 -40 -7 -3 -13 -12 -13 -20 0 -9 6 -13 15 -9 13 5 14 2 3
-17 -14 -26 -18 -58 -6 -51 14 9 8 -23 -7 -36 -13 -10 -15 -9 -15 9 0 18 -2
20 -14 9 -8 -7 -10 -14 -5 -16 16 -6 9 -19 -16 -30 -35 -16 -40 -15 -24 5 8
10 9 14 2 10 -17 -11 -27 11 -13 28 9 11 9 15 1 15 -6 0 -11 5 -11 11 0 6 6 9
13 6 6 -2 24 15 40 39 31 51 32 55 12 48 -8 -4 -15 -15 -15 -25 0 -11 -7 -19
-17 -20 -11 0 -13 -3 -5 -6 6 -2 10 -9 6 -14 -7 -12 -44 -12 -44 1 0 6 -9 10
-20 10 -11 0 -20 5 -20 10 0 12 3 12 33 1 22 -9 24 -7 21 15 -2 21 0 23 12 13
11 -9 14 -7 14 10 0 11 -5 20 -12 19 -6 -2 -17 8 -24 21 -11 22 -10 27 8 43
18 15 18 18 5 18 -10 0 -17 5 -17 11 0 6 9 9 20 6 21 -5 28 7 10 18 -6 4 -7
12 -3 18 11 18 14 47 4 47 -15 0 -22 33 -9 41 8 5 3 10 -15 14 -31 8 -35 20
-11 33 20 11 3 25 -19 16 -24 -9 -30 -37 -11 -51 9 -7 21 -10 25 -7 5 3 9 1 9
-5 0 -14 -39 -9 -45 7 -3 10 -10 10 -25 2 -11 -6 -20 -7 -20 -3 0 4 -12 9 -28
9 -15 1 -21 -1 -14 -3 10 -4 10 -9 -3 -23 -13 -14 -23 -17 -40 -10 -24 9 -35
4 -35 -14 0 -6 5 -4 10 4 8 12 10 12 10 -5 0 -17 2 -17 10 -5 8 13 10 13 10
-2 0 -9 9 -20 20 -23 21 -7 27 -21 11 -27 -5 -2 -2 -10 7 -18 14 -13 15 -12 9
3 -8 21 0 22 19 2 14 -13 13 -16 -10 -25 -14 -5 -26 -12 -26 -14 0 -3 7 -3 15
0 17 7 21 -21 5 -31 -8 -5 -7 -11 1 -21 6 -8 9 -17 5 -21 -3 -3 -6 -2 -6 4 0
6 -18 10 -40 9 -42 -1 -47 -5 -29 -23 9 -9 17 -9 31 0 16 10 22 9 33 -8 16
-23 26 -34 51 -54 12 -10 14 -16 5 -19 -6 -2 -18 1 -25 8 -10 7 -16 8 -21 0
-3 -5 -21 -10 -40 -10 -19 0 -37 -4 -40 -10 -3 -5 -15 -10 -26 -10 -10 0 -19
-5 -19 -12 0 -6 -10 -3 -22 8 -21 19 -21 19 -14 -1 17 -43 18 -55 3 -70 -22
-21 -30 -19 -22 7 6 17 4 20 -9 15 -13 -5 -15 -2 -9 21 6 25 5 26 -10 10 -9
-9 -17 -24 -17 -32 0 -9 -4 -16 -9 -16 -13 0 4 58 24 80 8 9 15 24 15 32 0 10
12 18 33 21 17 3 42 8 55 12 14 5 22 3 22 -4 0 -6 -7 -11 -15 -11 -8 0 -15 -4
-15 -9 0 -15 30 -22 48 -11 10 5 12 10 5 10 -6 0 -13 11 -15 25 -2 14 -7 25
-12 24 -5 0 -12 5 -17 12 -6 11 -12 10 -26 -3 -25 -23 -48 -8 -39 26 3 14 13
26 22 26 11 0 14 5 10 16 -5 12 -1 14 15 9 13 -5 25 -2 30 6 4 7 11 10 14 7 4
-4 0 -17 -9 -30 -23 -33 -20 -40 8 -15 18 16 22 26 15 38 -6 12 -4 21 6 29 8
7 15 17 15 23 0 5 -9 0 -20 -13 -11 -13 -26 -20 -34 -17 -11 4 -13 1 -9 -10 4
-11 2 -14 -8 -11 -8 3 -14 11 -14 19 0 8 -4 20 -8 27 -5 7 -5 21 -2 32 4 11 2
20 -3 20 -14 0 -23 -43 -10 -51 7 -5 7 -15 0 -35 -10 -28 -11 -28 -17 -7 -4
13 -11 23 -16 23 -12 0 -11 -7 2 -32 10 -18 9 -20 -5 -15 -10 4 -16 1 -16 -9
0 -8 -4 -12 -10 -9 -12 8 -13 45 -1 45 5 0 7 9 4 20 -3 10 -9 18 -13 17 -4 -1
-8 3 -9 8 0 6 9 10 20 9 11 0 18 3 17 8 -2 5 -7 9 -12 8 -11 -2 -26 21 -26 40
0 8 9 21 20 28 21 12 21 12 4 -13 -9 -14 -14 -28 -11 -31 11 -11 47 65 46 97
-1 25 -3 28 -6 11 -3 -13 -12 -26 -21 -29 -9 -4 -22 -14 -29 -22 -11 -14 -12
-13 -13 7 0 13 -6 22 -15 22 -8 0 -15 7 -15 15 0 8 4 15 9 15 5 0 9 6 8 13 -1
39 5 57 23 67 16 9 18 8 14 -5 -4 -8 -1 -15 5 -15 6 0 11 -8 12 -17 0 -16 1
-16 8 1 8 22 17 13 32 -32 l9 -27 -4 27 c-2 15 2 29 8 32 7 2 3 11 -9 21 -11
9 -14 14 -8 10 8 -4 11 -1 7 8 -3 8 -1 18 5 22 6 3 11 -1 11 -10 0 -9 6 -23
14 -31 13 -12 17 -12 30 2 18 18 20 30 6 39 -5 3 -10 1 -10 -4 0 -6 -5 -11
-11 -11 -8 0 -8 5 1 15 7 8 10 21 7 30 -4 8 -2 17 3 20 5 3 9 30 7 60 -2 47
-4 52 -20 44 -9 -6 -22 -7 -27 -4 -5 3 -12 0 -16 -6 -4 -8 -9 -7 -15 2 -6 10
-9 11 -9 2 0 -7 -7 -13 -15 -13 -8 0 -15 -8 -16 -17 0 -13 -3 -11 -11 7 -6 14
-10 36 -9 49 2 15 -1 21 -9 16 -7 -5 -9 2 -4 22 9 36 9 36 33 24 13 -7 22 -8
26 -1 9 15 41 12 55 -5 7 -8 16 -12 21 -9 15 9 10 22 -12 29 -15 5 -19 13 -16
27 4 15 3 17 -8 8 -9 -8 -14 -6 -19 5 -3 9 -2 13 4 10 6 -3 10 -2 10 4 0 15
-62 2 -76 -16 -10 -12 -12 -11 -17 2 -4 8 -1 14 5 12 12 -2 15 4 17 48 0 15 7
25 15 25 20 0 26 12 20 37 -4 14 -12 19 -25 16 -15 -4 -19 0 -19 18 0 13 4 20
8 14 4 -6 19 1 36 18 16 15 22 25 13 21 -12 -4 -17 -1 -17 11 0 13 6 16 21 12
15 -4 19 -2 15 9 -3 7 2 18 12 24 37 21 42 27 36 43 -8 23 -24 21 -24 -2 0
-10 -7 -22 -16 -25 -12 -5 -15 -2 -10 9 3 9 2 13 -4 10 -6 -3 -10 -14 -10 -22
0 -14 -4 -13 -20 5 -11 12 -20 26 -20 31 0 6 -6 8 -14 5 -7 -3 -16 2 -20 11
-3 9 -10 13 -16 10 -7 -4 -6 -13 1 -26 9 -17 8 -20 -8 -18 -10 2 -23 0 -29 -4
-7 -4 -11 0 -10 11 0 11 -7 18 -21 20 -13 2 -23 -1 -23 -7 0 -6 8 -11 18 -11
10 0 13 -3 6 -8 -15 -10 -25 -40 -14 -44 5 -2 -4 -15 -20 -30 -21 -19 -30 -23
-30 -13 0 8 -4 15 -10 15 -5 0 -10 9 -10 21 0 17 4 19 22 13 20 -6 21 -5 9 10
-17 20 -55 22 -48 2 7 -17 -49 -41 -58 -25 -4 5 1 9 9 9 9 0 16 7 16 15 0 8
-7 15 -15 15 -8 0 -15 4 -15 10 0 5 3 9 8 7 4 -1 8 2 10 8 7 19 -15 15 -41 -9
-14 -13 -24 -32 -23 -42 2 -11 1 -13 -1 -6 -3 6 -12 12 -21 11 -11 0 -12 -2
-4 -6 6 -2 9 -9 6 -14 -3 -6 -1 -15 4 -22 14 -18 21 -57 11 -57 -5 0 -9 -4 -9
-10 0 -5 13 -10 29 -10 16 0 35 -8 42 -17 8 -10 9 -14 2 -10 -8 5 -13 -7 -16
-40 l-3 -48 -2 48 c-2 40 -5 47 -22 47 -15 0 -20 -7 -20 -25 0 -14 5 -25 10
-25 6 0 10 -4 10 -10 0 -5 -9 -10 -21 -10 -16 0 -20 4 -14 18 4 11 3 13 -3 7
-16 -16 -24 -72 -13 -80 6 -3 11 -2 11 4 0 10 46 8 57 -2 3 -3 -2 -13 -11 -22
-18 -18 -21 -35 -6 -35 5 0 7 -6 4 -14 -3 -8 -1 -17 5 -21 6 -3 11 -13 11 -22
0 -11 -5 -9 -20 8 -11 14 -19 18 -20 11 0 -7 -5 -10 -11 -6 -8 5 -10 -1 -6
-18 5 -18 2 -28 -9 -32 -9 -3 -12 -2 -9 5 10 15 -5 110 -16 103 -6 -3 -15 -2
-22 3 -14 11 -27 11 -44 0 -6 -4 -14 -3 -18 3 -4 6 -11 8 -16 4 -6 -3 -17 2
-25 12 -15 18 -15 18 -11 -3 5 -21 -3 -28 -25 -24 -11 1 -10 -17 1 -23 5 -3 9
-23 8 -43 -1 -20 4 -38 11 -41 7 -2 12 -8 12 -14 0 -6 -8 -4 -18 5 -25 22 -35
21 -29 -2 3 -13 -1 -21 -14 -24 -11 -3 -19 -11 -19 -17 0 -10 3 -10 14 -1 26
22 56 22 56 1 0 -13 -6 -19 -17 -18 -36 3 -68 -2 -57 -10 6 -4 14 -14 17 -22
4 -12 6 -11 6 3 1 25 41 23 41 -3 0 -13 -7 -20 -19 -20 -11 0 -23 -5 -27 -12
-5 -8 -10 -6 -15 8 -6 16 -8 15 -8 -8 -1 -28 21 -39 34 -18 3 6 11 10 17 10 6
0 6 -6 -2 -15 -11 -13 -10 -14 4 -9 9 3 16 1 16 -5 0 -19 17 -12 23 9 4 15 13
19 41 18 26 -1 35 -5 32 -15 -3 -7 -1 -13 4 -13 6 0 10 -7 10 -16 0 -12 4 -14
13 -7 6 5 27 9 45 8 28 -2 33 1 29 16 -3 12 0 16 9 12 8 -3 14 -15 14 -27 0
-14 6 -23 15 -23 8 0 15 5 15 11 0 6 5 4 10 -4 8 -13 10 -13 10 1 0 20 24 31
38 17 16 -16 53 31 42 53 -7 11 -7 20 0 24 5 3 10 0 10 -7 0 -10 3 -9 11 2 9
12 10 11 6 -5 -3 -11 -8 -28 -12 -38 -6 -13 -3 -16 9 -11 10 4 16 1 16 -7 0
-11 3 -11 10 1 9 13 11 13 20 0 8 -13 10 -12 10 3 0 9 -4 17 -10 17 -5 0 -10
10 -10 23 1 20 2 20 11 5 5 -10 16 -18 23 -18 16 0 26 -22 26 -53 -1 -22 -1
-22 -15 -3 -8 11 -15 15 -15 9 0 -6 -10 -13 -22 -17 -19 -5 -20 -8 -8 -15 8
-6 20 -27 26 -48 12 -38 12 -38 14 -8 l2 30 9 -33 c6 -20 14 -30 22 -27 7 4 3
-1 -7 -9 -14 -11 -22 -13 -27 -5 -5 8 -8 8 -13 0 -9 -14 -26 -14 -26 0 0 5 4
8 9 5 5 -4 7 3 4 14 -3 13 -14 20 -29 20 -13 0 -24 5 -24 10 0 6 5 10 10 10
19 0 10 18 -12 25 -42 13 -47 13 -42 0 3 -8 -4 -18 -15 -24 -27 -15 -31 -14
-31 9 0 24 -18 27 -27 4 -6 -15 -8 -15 -20 2 -12 16 -13 15 -13 -12 0 -22 -3
-26 -10 -14 -8 12 -10 11 -10 -5 0 -12 6 -27 12 -34 11 -11 9 -13 -9 -8 -18 4
-23 1 -23 -15 0 -12 8 -27 18 -34 16 -13 16 -13 0 -14 -10 0 -18 -7 -18 -15 0
-8 -4 -15 -10 -15 -11 0 -25 48 -16 57 3 4 6 -4 6 -17 0 -15 4 -20 9 -14 13
14 1 74 -15 74 -11 0 -12 4 -4 19 13 26 13 31 -4 31 -8 0 -27 11 -43 24 -25
21 -31 22 -48 10 -27 -20 -37 -17 -30 9 5 20 4 19 -15 -5 -13 -17 -31 -28 -46
-28 -13 0 -24 -5 -24 -11 0 -5 5 -7 10 -4 6 3 10 2 10 -3 0 -15 -63 -24 -71
-10 -4 7 -10 10 -13 8 -11 -12 -8 -38 8 -70 l17 -35 -5 35 c-5 34 -5 35 8 10
8 -14 19 -25 25 -25 6 0 11 -3 11 -7 0 -31 -1 -32 -10 -18 -6 9 -10 10 -10 3
0 -6 5 -15 11 -18 5 -4 8 -19 6 -33 -2 -15 -2 -21 0 -14 4 11 7 11 20 0 14
-11 15 -10 10 7 -8 25 17 73 28 55 4 -6 3 -16 -3 -22 -6 -6 -8 -25 -5 -43 4
-25 1 -34 -13 -39 -10 -4 -21 -1 -26 6 -5 9 -8 6 -8 -9 0 -13 -4 -23 -10 -23
-5 0 -10 7 -10 16 0 13 -3 14 -13 5 -18 -15 -26 -5 -21 26 3 14 1 22 -5 19
-10 -7 -44 71 -36 84 3 5 13 6 22 3 13 -5 15 -2 10 11 -4 10 -7 20 -7 22 0 3
-4 3 -9 0 -5 -3 -11 1 -15 9 -3 8 -1 17 4 20 6 4 7 18 4 32 -6 24 -5 25 20 21
20 -4 26 -1 26 13 0 16 -4 17 -26 8 -24 -8 -25 -8 -14 6 7 8 18 15 26 15 22 0
24 16 4 38 -19 21 -19 21 0 27 11 4 20 11 20 16 0 13 -9 11 -27 -6 -8 -8 -19
-12 -25 -9 -6 4 -6 -1 1 -14 16 -30 13 -41 -9 -35 -31 8 -66 63 -40 63 6 0 10
-7 10 -15 0 -8 5 -15 10 -15 6 0 10 17 10 38 0 20 5 44 10 52 9 13 13 12 29
-7 11 -13 23 -23 27 -23 4 0 3 5 -3 11 -14 14 -5 49 14 49 8 0 21 7 29 15 9 8
12 15 9 15 -4 0 0 11 9 25 18 28 21 39 6 30 -5 -3 -10 2 -11 12 0 16 -1 16 -9
-2 -7 -16 -9 -16 -9 -4 -1 9 -8 19 -16 23 -13 5 -13 2 1 -19 10 -16 14 -34 9
-53 -5 -24 -11 -29 -35 -29 -17 0 -30 5 -31 11 -1 6 -5 0 -9 -14 l-8 -25 -1
28 c-1 22 -6 27 -27 27 l-26 0 26 46 c30 54 30 54 12 54 -8 0 -17 -7 -20 -16
-3 -8 -10 -12 -16 -9 -6 4 -8 10 -5 15 3 4 -2 10 -10 14 -8 3 -15 15 -15 26 0
19 -10 24 -37 21 -21 -3 -15 20 7 26 11 3 20 10 20 15 0 5 -4 6 -10 3 -5 -3
-10 -1 -10 4 0 6 5 11 11 11 18 0 41 -30 35 -45 -3 -9 1 -15 10 -15 11 0 13 6
9 20 -3 11 -3 25 2 32 5 9 10 1 14 -22 l6 -35 2 41 c0 22 6 45 12 51 5 5 11
33 12 61 1 30 6 47 11 42 5 -5 17 -5 28 1 12 6 24 6 37 -1 27 -14 31 -13 31 7
0 12 3 14 11 6 17 -17 0 -36 -27 -30 -31 6 -30 -7 2 -41 15 -15 24 -20 21 -12
-2 9 2 25 10 35 14 19 15 19 8 -4 -6 -19 -4 -23 8 -18 12 4 15 -2 14 -27 -1
-27 -4 -32 -19 -28 -10 2 -15 9 -11 15 3 6 1 7 -5 3 -9 -5 -9 -13 -2 -27 6
-11 8 -24 5 -29 -4 -6 1 -13 9 -16 9 -3 13 -11 10 -16 -4 -6 2 -5 14 1 15 8
23 8 28 0 3 -6 17 -9 31 -6 16 3 23 0 20 -8 -3 -6 1 -12 9 -12 16 0 19 13 4
22 -6 3 -10 16 -10 28 0 17 2 19 9 8 7 -11 10 -10 14 5 2 10 5 -2 6 -28 1 -54
25 -68 28 -18 1 17 -2 30 -7 30 -6 0 -10 10 -10 23 0 16 3 18 9 8 6 -9 11 -10
15 -2 4 6 4 16 1 22 -4 6 2 13 13 16 13 3 19 10 15 19 -4 12 -8 12 -21 2 -13
-11 -14 -10 -8 9 7 22 -8 41 -19 23 -10 -17 -45 -32 -45 -20 0 6 8 14 18 17
22 9 42 29 42 42 0 6 5 11 10 11 6 0 10 -7 10 -16 0 -8 4 -12 10 -9 15 9 12
23 -10 42 -11 10 -20 23 -20 30 0 7 -5 13 -11 13 -6 0 -9 6 -6 14 3 8 1 17 -6
20 -7 2 0 5 16 5 15 1 27 -4 27 -11 0 -6 3 -9 6 -6 9 9 -23 65 -42 72 -13 5
-15 2 -11 -14 3 -11 1 -20 -4 -20 -5 0 -9 13 -9 29 0 16 -7 34 -15 41 -15 13
-12 30 6 30 6 0 8 -3 6 -7 -3 -5 1 -13 8 -20 20 -18 38 9 41 60 4 71 5 73 18
43 9 -20 15 -25 19 -15 3 8 6 -3 6 -23 1 -21 5 -38 11 -38 5 0 14 -10 21 -21
8 -15 8 -19 0 -15 -6 4 -11 0 -11 -9 0 -13 3 -14 22 -3 13 7 28 14 33 14 6 1
12 3 15 4 38 14 100 -11 100 -41 0 -18 9 -19 51 -1 15 6 36 8 48 5 18 -5 21
-1 20 28 0 19 -3 28 -6 22 -6 -16 -43 -17 -43 -2 0 6 7 9 15 6 8 -4 17 -2 20
4 11 16 25 -1 25 -29 1 -30 21 -62 39 -62 9 0 11 11 7 32 -3 18 -3 26 0 18 16
-37 25 -40 50 -12 13 15 24 22 24 15 0 -6 8 -11 19 -10 12 1 17 7 13 19 -2 10
-9 15 -15 11 -6 -3 -7 -1 -3 5 9 14 -29 52 -52 52 -9 0 -23 -9 -30 -20 -12
-20 -12 -21 13 -4 15 10 25 12 25 5 0 -6 -7 -11 -16 -11 -8 0 -13 -4 -10 -9 4
-5 -2 -8 -11 -6 -10 2 -22 4 -27 4 -5 1 -4 7 2 14 6 7 9 23 5 35 -3 13 -1 22
6 22 7 0 9 6 6 12 -4 7 0 5 8 -5 15 -18 57 -24 57 -8 0 5 3 17 7 27 4 11 3 15
-4 11 -6 -4 -14 -1 -17 5 -5 10 -7 10 -12 1 -3 -8 -15 -11 -29 -7 -18 4 -24 1
-29 -20 -5 -21 -12 -26 -39 -26 -17 0 -27 4 -21 8 15 10 25 42 14 42 -6 0 -10
7 -10 15 0 8 -5 15 -11 15 -6 0 -9 -7 -5 -15 3 -9 0 -15 -10 -15 -12 0 -15 6
-10 23 3 12 6 27 6 34 0 6 9 11 20 10 11 -1 20 -5 20 -10 0 -5 7 -2 15 7 18
18 19 27 3 23 -7 -1 -13 4 -13 12 0 8 8 15 19 17 29 4 42 22 28 36 -7 7 -12 8
-12 2 0 -6 -13 -9 -29 -6 -27 4 -28 5 -13 21 11 11 21 14 28 9 6 -4 19 -6 28
-2 9 3 16 1 16 -5 0 -6 8 -11 17 -11 16 0 16 1 1 17 -15 14 -15 18 -3 27 12 9
12 13 -1 24 -12 11 -14 10 -14 -4 0 -16 -2 -15 -21 1 -20 19 -20 19 -10 -9 13
-34 13 -36 1 -36 -5 0 -10 7 -10 15 0 8 -6 15 -12 15 -7 0 -22 3 -33 6 -15 4
-23 -3 -35 -28 -8 -18 -13 -36 -12 -41 1 -4 -3 -7 -8 -7 -6 0 -10 15 -11 33 0
32 0 32 -16 9 -8 -12 -22 -22 -30 -22 -8 0 -12 -4 -8 -9 3 -5 1 -12 -5 -16 -6
-4 -10 5 -10 19 0 14 4 26 10 26 5 0 9 6 7 13 -1 6 3 11 9 10 7 -1 9 8 6 24
-3 18 -1 24 7 19 8 -6 10 0 5 18 -4 18 -2 26 7 26 8 0 15 -11 15 -25 2 -35 11
-55 24 -55 6 0 9 4 6 9 -8 12 20 22 39 15 11 -5 14 0 13 17 -3 21 1 24 32 24
28 1 43 -7 72 -38 25 -25 42 -36 50 -31 7 5 24 7 38 6 25 -2 25 -2 3 8 -30 12
-30 32 -1 30 38 -3 41 -1 25 24 -13 20 -14 26 -3 35 7 6 15 9 18 6 3 -3 10 0
16 8 8 10 7 13 -6 14 -9 1 -24 3 -32 5 -10 2 -14 -4 -13 -19 2 -13 -2 -23 -7
-23 -6 0 -10 5 -10 10 0 6 -4 10 -9 10 -5 0 -7 -9 -4 -20 3 -11 8 -18 12 -16
4 3 13 0 21 -5 13 -9 13 -10 0 -6 -8 2 -20 -3 -27 -12 -11 -14 -12 -14 -13 2
0 9 -5 17 -11 17 -6 0 -17 7 -25 15 -9 8 -24 15 -34 15 -21 0 -34 29 -24 55 5
13 14 15 36 11 18 -3 27 -2 23 4 -7 11 18 40 34 40 6 0 8 7 5 15 -4 9 -15 13
-30 11 -18 -4 -27 2 -38 25 -8 16 -10 29 -5 29 5 0 9 -4 9 -9 0 -5 13 -11 28
-13 26 -4 27 -2 18 19 -7 15 -17 21 -28 17 -9 -2 -19 -1 -22 4 -3 5 -19 8 -36
6 -35 -4 -70 24 -70 57 0 12 -4 17 -11 13 -6 -3 -9 -15 -6 -25 7 -26 -9 -34
-22 -12 -6 11 -11 13 -11 5 0 -7 -6 -12 -12 -10 -20 3 -58 -12 -58 -23 0 -6 9
-7 21 -4 16 5 19 4 14 -6 -6 -9 -3 -11 8 -6 10 4 17 1 17 -6 0 -8 4 -6 10 3 8
13 10 13 10 -1 0 -17 -26 -34 -47 -30 -6 1 -14 -3 -18 -9 -3 -5 -14 -10 -23
-10 -12 0 -13 3 -4 12 20 20 14 33 -7 14 -17 -16 -19 -16 -25 0 -4 11 1 22 13
30 12 9 17 21 14 34 -4 15 0 20 16 20 27 0 27 21 1 40 -24 17 -25 33 -5 50 12
10 18 10 32 -1 15 -12 16 -12 11 7 -3 12 -2 28 3 35 7 11 9 11 9 1 0 -7 8 -12
17 -10 10 2 18 -3 18 -9 0 -7 5 -12 10 -10 6 1 9 8 9 15 -2 17 15 15 22 -3 4
-8 11 -12 17 -8 7 4 8 0 4 -11 -5 -12 1 -24 15 -38 16 -13 19 -21 11 -24 -7
-3 -13 -10 -13 -16 0 -6 9 -3 19 6 11 10 17 24 14 31 -11 29 9 34 33 8 13 -14
24 -20 24 -14 0 8 8 10 20 6 11 -4 20 -2 20 4 0 6 -9 11 -19 11 -17 0 -18 3
-8 25 7 13 14 20 15 15 2 -6 8 -10 13 -10 10 0 0 31 -15 45 -6 6 -19 22 -29
37 -16 26 -16 27 5 43 l22 15 -21 0 c-20 0 -21 3 -11 36 5 20 7 39 3 42 -3 3
-8 -4 -12 -17 -3 -13 -9 -18 -12 -12 -8 13 -81 23 -81 12 0 -5 11 -12 25 -15
16 -4 23 -11 19 -18 -5 -7 0 -9 14 -6 19 5 20 3 11 -13 -14 -27 -36 -23 -47 9
-10 26 -10 26 -12 -13 -2 -34 -3 -36 -9 -15 -4 14 -13 25 -21 25 -20 0 -23 20
-5 35 8 7 15 18 15 25 0 7 7 18 15 25 12 10 15 10 15 -4 0 -9 5 -16 10 -16 6
0 10 4 10 9 0 5 9 11 21 14 16 4 19 2 15 -11 -4 -11 1 -8 14 7 11 13 20 18 20
12 0 -6 6 -11 14 -11 20 0 31 39 16 54 -10 8 -11 8 -6 -1 4 -7 5 -17 1 -23
-10 -16 -30 -1 -30 24 0 13 3 22 7 20 4 -2 9 0 12 5 4 5 18 -2 33 -15 21 -19
24 -27 14 -33 -10 -7 -10 -9 1 -14 10 -3 15 4 16 24 2 19 -3 32 -13 36 -10 3
-15 15 -13 31 4 32 -18 41 -27 12 -5 -16 -10 -19 -18 -11 -7 7 -14 5 -23 -7
-10 -14 -11 -13 -7 11 3 15 9 25 13 22 11 -7 40 5 40 17 0 5 -7 16 -15 25 -21
20 -12 28 14 14 12 -7 18 -17 14 -27 -3 -9 0 -14 8 -12 9 2 14 -6 14 -24 -1
-21 4 -28 18 -28 10 0 15 5 12 10 -3 6 -1 10 4 10 6 0 11 -10 11 -22 1 -21 2
-21 11 -5 13 23 29 22 29 -2 0 -11 6 -21 13 -24 6 -2 8 -8 4 -13 -4 -4 -16 -4
-25 2 -20 13 -42 7 -42 -10 0 -8 19 -11 60 -10 61 1 88 13 76 33 -11 17 -26
13 -20 -4 4 -11 0 -15 -16 -15 -19 0 -20 2 -10 15 9 11 9 15 1 15 -7 0 -9 5
-5 12 5 8 2 9 -12 4 -16 -6 -16 -4 4 14 23 21 29 54 13 65 -5 3 -13 0 -16 -5
-4 -7 -19 -8 -37 -5 -21 5 -28 4 -24 -4 4 -6 12 -9 17 -6 5 4 9 1 9 -4 0 -6 9
-11 20 -11 11 0 20 -4 20 -10 0 -27 -90 7 -124 47 -31 36 -35 54 -6 28 16 -14
26 -16 52 -9 17 5 34 16 36 24 5 13 3 13 -11 1 -13 -10 -20 -11 -31 -2 -7 6
-21 9 -30 5 -22 -9 -20 9 3 23 11 7 21 8 23 3 2 -5 24 -10 51 -11 49 -2 61
-13 27 -24 -19 -6 -29 -35 -12 -35 19 0 43 39 44 73 1 20 4 34 8 32 3 -2 14 9
23 24 16 27 16 28 -9 40 -26 11 -25 31 2 31 8 0 14 5 14 11 0 6 -10 9 -22 7
-21 -4 -23 -1 -23 45 -1 28 1 45 3 38 2 -6 10 -11 18 -11 9 0 12 -5 8 -11 -3
-6 0 -16 7 -21 10 -7 7 -7 -8 -3 -13 4 -23 2 -23 -4 0 -5 14 -13 32 -16 23 -6
35 -3 43 9 7 8 15 13 18 9 4 -3 7 -2 7 3 -1 17 -39 56 -50 49 -5 -3 -18 -1
-27 5 -16 9 -15 10 5 5 18 -5 22 -2 22 14 0 23 7 26 30 11 9 -6 17 -5 22 3 11
17 10 29 -2 22 -6 -3 -10 -1 -10 4 0 18 -29 12 -50 -9 -11 -11 -26 -17 -35
-14 -18 7 -20 23 -2 28 6 2 28 8 47 14 20 7 38 8 43 3 5 -5 16 -7 23 -4 9 3
14 -3 15 -18 l1 -24 8 25 c8 25 8 25 9 2 1 -13 5 -21 10 -17 10 6 11 44 1 43
-25 -2 -43 7 -75 38 -20 19 -39 33 -42 30 -6 -5 -43 37 -43 48 0 15 19 4 25
-14 8 -25 25 -26 25 -2 1 11 6 6 15 -13 l15 -30 -3 36 c-2 27 1 35 10 32 7 -3
13 1 13 9 0 22 -11 28 -31 17 -16 -8 -19 -6 -19 12 0 19 2 20 16 8 15 -12 16
-11 10 8 -4 12 -1 26 7 35 8 7 12 26 10 43 -5 40 -19 53 -19 18 1 -25 -2 -28
-29 -25 -16 2 -35 8 -41 13 -8 7 -14 6 -18 -3 -3 -7 -4 -1 -2 15 2 18 -1 27
-10 27 -8 0 -14 5 -14 12 0 9 -3 9 -12 0 -8 -8 -8 -15 3 -28 10 -12 10 -15 1
-10 -27 16 -70 15 -77 -2 -5 -14 -7 -14 -15 -2 -8 12 -10 11 -10 -5 -1 -18 -1
-19 -11 -2 -11 19 -3 41 12 32 5 -4 9 3 9 14 0 21 17 37 28 26 3 -3 0 -10 -8
-15 -12 -8 -11 -10 6 -10 28 0 36 10 23 27 -9 9 -8 13 0 13 6 0 11 4 11 10 0
5 -12 7 -27 4 -40 -7 -56 7 -44 38 8 21 6 29 -10 44 -16 15 -19 15 -19 1 0 -9
-7 -14 -17 -12 -10 1 -23 -7 -29 -18 -22 -40 -20 8 2 53 13 25 23 37 23 28 1
-9 -3 -20 -9 -23 -15 -9 -12 -25 5 -25 8 0 15 6 15 14 0 8 5 18 12 22 7 4 8 3
4 -4 -4 -7 -3 -12 3 -12 5 0 11 5 13 12 3 7 14 9 33 4 22 -6 25 -10 15 -16 -8
-5 -18 -6 -22 -4 -4 3 -8 -1 -8 -9 0 -21 29 -30 36 -12 4 8 11 15 17 15 7 0 7
-4 -1 -12 -7 -7 -12 -20 -12 -30 0 -10 -7 -21 -15 -24 -8 -4 -15 -10 -15 -14
0 -5 12 -3 27 5 15 8 31 11 36 8 6 -3 7 -1 3 6 -4 6 -12 9 -17 6 -5 -4 -9 1
-9 9 0 10 6 13 15 9 13 -4 15 0 11 21 -3 14 0 26 5 26 5 0 9 5 9 11 0 5 -4 7
-10 4 -6 -3 -10 1 -10 9 0 9 5 15 11 13 6 -1 14 4 16 11 6 16 -12 16 -29 -1
-19 -19 -46 -28 -53 -16 -4 5 -11 7 -16 4 -5 -4 -14 6 -21 20 -9 21 -9 31 0
46 17 27 -2 24 -21 -3 l-16 -23 6 23 c3 12 9 22 14 22 5 0 9 7 9 16 0 8 5 12
10 9 6 -3 10 2 11 12 0 16 1 16 8 -2 5 -11 6 -26 4 -32 -3 -7 2 -13 12 -13 11
0 15 -5 12 -14 -4 -10 -1 -13 9 -9 7 3 14 16 14 30 0 28 15 23 23 -8 3 -11 3
-18 0 -15 -3 3 -12 -2 -20 -10 -19 -19 -9 -31 12 -14 8 7 21 10 29 7 10 -4 9
5 -7 34 -11 21 -24 39 -29 39 -4 0 -5 6 -2 13 2 7 13 13 23 13 12 0 17 -5 13
-15 -3 -9 -1 -12 6 -7 7 4 12 14 12 23 0 10 6 14 20 10 16 -4 18 -2 11 11 -5
10 -5 26 0 37 12 30 11 35 -7 35 -13 0 -14 3 -5 13 13 16 5 28 -14 20 -8 -2
-11 -11 -9 -18 4 -9 -4 -12 -25 -11 -17 0 -31 5 -31 10 0 15 -30 -16 -31 -33
0 -11 -2 -12 -6 -3 -3 7 1 19 7 27 9 11 9 15 1 15 -6 0 -11 4 -11 9 0 10 34 8
63 -4 10 -4 17 -3 17 3 0 6 -8 13 -17 15 -10 3 -1 5 20 6 21 0 36 5 33 10 -3
5 -30 8 -60 6 -41 -1 -53 1 -49 11 2 7 11 10 18 8 10 -4 12 5 9 41 -3 25 0 54
6 63 9 14 10 12 5 -10 -4 -21 -2 -28 10 -28 8 0 15 -7 15 -15 0 -8 -5 -15 -11
-15 -5 0 -7 6 -3 13 5 9 4 9 -6 1 -6 -7 -9 -21 -6 -32 6 -18 32 -21 109 -13 4
1 8 25 8 54 1 28 4 40 6 25 2 -16 9 -28 14 -28 5 0 9 -20 9 -45 0 -25 -4 -45
-10 -45 -5 0 -10 -7 -10 -15 0 -8 5 -15 10 -15 6 0 10 -12 9 -27 0 -16 3 -39
7 -52 5 -17 4 -22 -4 -17 -7 4 -12 1 -12 -6 -1 -8 -6 -6 -15 6 -13 17 -15 17
-15 3 0 -9 9 -21 21 -27 12 -7 18 -18 15 -26 -7 -18 3 -44 16 -44 6 0 7 11 4
25 -4 14 -2 25 3 25 5 0 8 11 5 24 -2 14 0 28 6 31 9 5 12 -1 9 -21 0 -4 5
-11 13 -15 10 -7 10 -9 1 -9 -7 0 -13 -11 -13 -24 0 -39 -32 -54 -95 -44 -15
2 -21 -3 -23 -22 -2 -22 -1 -23 8 -7 12 19 40 23 40 6 0 -5 4 -7 10 -4 6 3 10
2 10 -3 0 -6 8 -9 18 -8 12 1 18 -7 19 -29 2 -28 1 -28 -6 -5 -6 23 -8 24 -17
7 -6 -11 -14 -18 -17 -18 -21 3 -27 0 -27 -13 0 -11 -9 -13 -35 -9 -39 6 -46
-5 -14 -25 17 -11 25 -11 46 3 16 11 29 13 35 7 14 -14 -21 -45 -43 -39 -11 3
-19 1 -19 -4 0 -5 15 -9 33 -9 24 0 28 -3 17 -10 -10 -6 -11 -10 -2 -10 6 0
12 -12 12 -27 l0 -26 19 21 c22 26 31 28 31 7 0 -14 3 -14 24 0 21 14 24 14
29 0 4 -9 1 -15 -7 -15 -9 0 -12 -7 -9 -20 3 -11 9 -17 14 -14 5 3 7 10 4 15
-6 8 9 13 29 10 4 -1 14 6 21 16 7 10 16 15 20 12 3 -4 -2 -14 -11 -24 -14
-14 -15 -18 -3 -25 10 -7 16 -3 22 13 12 31 15 32 36 13 22 -20 43 -14 35 9
-4 8 -10 13 -14 10 -5 -3 -17 6 -28 20 -18 23 -21 24 -25 8 -4 -17 -5 -16 -6
1 -1 15 -4 16 -16 6 -12 -10 -15 -10 -15 4 0 9 -3 16 -8 16 -4 0 -13 9 -19 20
-11 16 -10 18 4 13 10 -4 14 -2 10 4 -4 6 -2 25 3 44 7 22 7 35 0 37 -5 2 -10
8 -10 13 0 6 4 8 9 4 5 -3 12 -1 16 5 7 12 45 -5 45 -21 0 -6 -4 -7 -10 -4 -6
3 -10 0 -10 -7 0 -10 -3 -9 -11 2 -9 12 -10 12 -5 -4 4 -11 1 -23 -5 -27 -9
-5 -8 -12 4 -24 16 -15 17 -15 17 0 0 16 2 16 25 1 14 -9 30 -14 35 -11 6 3
10 -1 10 -9 0 -9 5 -16 11 -16 5 0 7 5 3 12 -4 7 -3 8 4 4 18 -11 14 -26 -7
-26 -23 0 -38 -19 -24 -29 6 -3 12 -12 15 -20 2 -8 14 -16 26 -17 17 -3 23 3
30 29 8 27 13 32 38 30 16 0 23 1 17 4 -17 6 -16 28 2 43 8 7 12 17 9 22 -4 6
-10 4 -16 -6 -5 -9 -16 -16 -25 -16 -13 0 -13 -3 -3 -15 10 -13 9 -15 -12 -15
-24 0 -47 37 -54 88 -3 26 2 28 22 7 8 -8 21 -12 29 -8 11 4 13 1 9 -11 -3 -8
-11 -14 -17 -13 -6 1 -13 -6 -15 -15 -3 -17 -2 -17 27 0 29 16 56 64 44 76 -4
3 -1 6 4 6 6 0 10 8 8 18 -2 9 -4 20 -4 24 -2 19 -31 -7 -31 -27 0 -13 -7 -25
-15 -29 -18 -6 -20 5 -3 22 6 6 8 15 4 19 -4 4 -11 1 -15 -6 -6 -9 -10 -5 -15
14 -5 20 -11 25 -26 20 -11 -4 -20 -2 -20 3 0 6 5 12 11 14 7 2 7 12 -2 31 -8
17 -18 26 -26 23 -15 -6 -53 14 -53 27 0 5 7 6 16 3 9 -4 23 -1 30 5 10 8 14
8 14 0 0 -19 18 -12 25 9 4 14 15 20 33 20 20 0 23 -3 12 -9 -8 -6 -18 -7 -24
-4 -5 4 -7 -3 -4 -15 4 -15 2 -22 -8 -22 -17 0 -17 -3 0 -44 11 -27 19 -34 40
-32 14 0 26 4 26 9 0 4 8 7 18 7 16 1 16 1 -1 11 -9 5 -22 7 -27 4 -6 -3 -10
1 -10 10 0 9 -4 13 -10 10 -6 -3 -10 4 -10 16 0 16 5 20 20 16 21 -5 28 7 10
16 -6 3 -5 4 2 3 8 -2 12 -14 10 -29 -2 -20 1 -25 12 -21 8 3 21 -5 31 -18 11
-14 15 -16 12 -6 -8 22 40 81 59 74 8 -3 14 -1 14 4 0 6 -4 10 -10 10 -19 0
-10 22 20 48 17 15 30 30 30 34 0 9 -36 5 -46 -5 -4 -4 -16 1 -26 10 -18 16
-18 16 -12 -2 6 -15 4 -17 -9 -12 -15 6 -16 3 -7 -14 6 -11 15 -17 21 -14 5 4
9 -3 9 -14 0 -27 -17 -27 -25 -1 -5 15 -12 19 -25 15 -25 -8 -36 13 -16 28 9
7 22 23 29 36 16 33 33 37 41 9 7 -22 7 -22 15 -3 5 12 4 26 -3 34 -9 12 -8
13 7 8 12 -4 17 -1 17 11 0 14 2 15 10 2 5 -9 5 -19 -2 -27 -16 -20 0 -15 24
7 20 18 44 25 76 21 23 -3 12 20 -15 30 -19 7 -29 7 -31 0 -5 -15 -52 -14 -52
0 0 8 -5 8 -15 -1 -12 -10 -15 -10 -15 3 0 16 23 39 36 36 24 -4 34 3 34 26 0
28 -15 33 -24 9 -6 -15 -8 -15 -26 1 -15 13 -17 22 -10 36 15 27 12 34 -8 17
-20 -17 -102 -24 -102 -8 0 6 -6 10 -12 9 -24 -3 -38 1 -38 10 0 6 12 6 32 0
18 -5 34 -9 34 -9 1 0 0 8 -3 19 -4 14 1 18 19 17 13 -1 29 5 36 14 12 13 13
12 9 -6 -6 -30 21 -25 39 7 7 13 14 20 15 14 1 -5 2 -14 4 -20 1 -5 3 -16 3
-22 3 -20 20 -15 27 8 5 15 1 25 -14 35 -17 13 -19 18 -8 34 17 28 27 25 27
-8 0 -19 5 -29 15 -29 8 0 15 4 15 9 0 4 8 17 17 28 13 14 20 17 30 8 19 -15
16 -24 -8 -25 -12 -1 -24 -4 -27 -7 -8 -9 20 -56 30 -50 4 3 6 9 3 14 -3 4 2
13 9 19 12 10 13 9 9 -7 -4 -15 1 -19 20 -19 20 0 26 6 31 30 9 42 8 45 -11
49 -15 3 -14 6 7 26 18 17 20 22 8 22 -36 0 -48 -11 -42 -39 l6 -26 -20 24
c-11 14 -22 19 -26 13 -4 -6 -20 -7 -47 -1 -22 5 -46 6 -52 2 -7 -4 -25 -6
-42 -4 -26 3 -28 1 -16 -13 8 -9 11 -20 7 -23 -4 -4 -11 -1 -16 7 -7 12 -12
12 -22 2 -9 -9 -9 -12 0 -12 7 0 12 -4 12 -9 0 -9 -7 -9 -47 4 -26 8 -28 15
-10 35 10 12 9 12 -5 1 -20 -15 -39 -7 -33 14 3 8 7 22 10 30 4 13 9 14 25 5
11 -6 20 -7 20 -3 0 10 51 10 68 0 8 -5 24 1 42 16 16 14 48 28 71 32 22 4 50
16 60 26 21 21 25 39 9 39 -5 0 -10 -4 -10 -9 0 -8 -37 -24 -52 -22 -5 1 -8
-4 -8 -11 0 -6 -10 -3 -22 8 -21 19 -21 19 -14 0 5 -16 4 -17 -9 -6 -20 16
-19 30 1 30 10 0 14 6 11 14 -7 18 8 24 55 21 30 -2 35 0 30 13 -4 10 -7 12
-10 4 -6 -19 -18 -14 -59 23 -39 36 -53 42 -53 25 0 -7 -6 -7 -20 0 -16 9 -20
8 -20 -6 0 -12 6 -15 27 -11 26 5 46 -7 51 -31 1 -7 -3 -12 -10 -10 -7 1 -24
-4 -37 -11 -17 -10 -26 -10 -35 -1 -8 8 -7 10 7 4 13 -5 16 -2 11 10 -4 10
-13 15 -20 12 -8 -3 -11 0 -7 10 3 9 -2 14 -17 14 -13 0 -19 4 -14 12 5 8 -3
9 -29 5 -21 -3 -37 -2 -37 4 0 16 -52 10 -66 -9 -13 -16 -14 -16 -8 1 4 11 1
17 -9 17 -8 0 -18 -11 -21 -25 -4 -14 -11 -25 -16 -25 -14 0 -13 13 2 28 17
17 1 27 -19 11 -9 -8 -14 -9 -10 -2 12 19 -283 16 -304 -3 -15 -13 -17 -13
-23 1 -4 12 -20 15 -71 14 -36 -1 -65 -6 -65 -10 0 -5 5 -9 10 -9 6 0 10 -4
10 -10 0 -5 -9 -10 -19 -10 -11 0 -23 -5 -26 -10 -4 -6 -12 -10 -18 -9 -28 3
-37 -2 -37 -22 0 -13 4 -18 13 -13 6 4 9 4 5 -1 -4 -4 -3 -14 3 -21 5 -7 6
-15 1 -18 -12 -7 -39 27 -36 47 1 10 -2 14 -8 11 -6 -4 -6 2 1 14 6 11 8 29 5
39 -5 17 -5 17 8 1 13 -15 15 -15 26 3 11 17 9 19 -22 19 -19 0 -37 -6 -39
-12 -4 -10 -6 -10 -6 0 -1 6 -10 12 -21 12 -17 0 -19 -5 -15 -27 6 -27 6 -27
-9 -9 -9 11 -16 23 -16 28 0 4 -81 8 -180 8 -137 0 -180 -3 -180 -12 0 -9 -4
-8 -10 2 -8 12 -10 12 -10 1 0 -11 -3 -11 -15 -1 -9 7 -19 10 -23 6 -4 -4 0
-13 8 -19 8 -7 15 -25 16 -42 0 -16 4 -39 9 -50 8 -18 7 -19 -8 -6 -15 12 -17
10 -18 -20 -2 -31 -2 -31 -6 -6 -4 23 -6 25 -19 13 -17 -17 -18 -36 -3 -36 7
0 8 -11 3 -32 -6 -29 -5 -31 10 -19 14 12 16 10 17 -10 0 -17 4 -13 13 16 11
38 12 39 19 15 9 -34 8 -49 -3 -25 -8 19 -9 19 -9 -2 -1 -13 3 -23 8 -23 14 0
24 -39 13 -53 -14 -19 -21 -56 -11 -63 15 -9 10 -64 -6 -70 -20 -8 -19 -24 1
-24 10 0 14 -6 10 -15 -3 -8 1 -21 9 -29 8 -8 15 -19 15 -25 0 -6 8 -7 17 -4
13 5 15 2 10 -11 -4 -10 -7 -20 -7 -22 0 -2 -7 -4 -15 -4 -8 0 -15 8 -15 19 0
10 -9 21 -19 24 -14 3 -18 1 -14 -9 3 -8 9 -14 14 -14 5 0 6 -13 3 -30 -5 -23
-3 -30 9 -30 9 0 21 8 26 18 9 15 10 14 11 -6 0 -13 -4 -20 -10 -17 -5 3 -10
2 -10 -4 0 -12 -61 -26 -69 -15 -3 5 -16 15 -28 21 -19 11 -24 10 -37 -9 -17
-24 -13 -39 5 -21 14 14 39 6 39 -13 0 -8 9 -14 21 -14 24 0 47 -20 42 -37 -2
-6 1 -15 8 -19 8 -4 9 -3 5 4 -4 7 -2 12 3 12 6 0 11 -14 11 -31 0 -17 8 -44
17 -60 15 -25 15 -31 2 -56 -17 -34 -34 -53 -47 -53 -6 0 -12 -6 -15 -14 -6
-15 12 -26 43 -26 22 0 31 -41 24 -109 -5 -47 8 -77 20 -46 3 8 10 15 15 15
19 0 -1 -31 -25 -41 -24 -8 -33 -29 -14 -29 6 0 10 -6 10 -14 0 -8 7 -16 15
-20 9 -3 15 -18 15 -36 0 -18 4 -29 10 -25 5 3 10 14 10 25 0 13 5 17 19 13
10 -3 22 0 25 6 4 6 2 11 -3 11 -6 0 -10 10 -10 23 1 17 2 18 6 4 4 -14 8 -16
19 -6 8 6 18 9 21 5 4 -4 3 -10 -2 -14 -14 -10 -17 -39 -5 -47 5 -3 10 1 10 9
0 29 41 18 53 -14 6 -17 23 -34 40 -41 20 -8 25 -15 18 -22 -15 -15 -14 -30 1
-21 7 4 8 3 4 -5 -4 -6 -11 -9 -16 -6 -5 3 -13 -2 -18 -11 -8 -15 -10 -14 -16
2 -6 16 -9 16 -17 4 -9 -13 -10 -13 -6 0 3 9 -1 24 -9 35 -8 10 -14 28 -14 39
0 14 -3 17 -8 8 -6 -9 -14 -7 -30 8 -12 12 -22 18 -22 14 0 -12 34 -64 42 -64
4 0 8 -7 8 -15 0 -8 5 -15 10 -15 18 0 11 -18 -10 -25 -34 -11 -22 -20 28 -20
30 -1 52 4 60 15 11 13 13 11 9 -12 -4 -24 1 -29 29 -40 34 -12 46 -40 23 -53
-6 -4 -9 -1 -7 7 2 7 -1 13 -7 13 -5 0 -8 -11 -6 -24 2 -16 -1 -22 -11 -19 -7
3 -12 16 -10 32 1 14 -1 26 -7 26 -5 0 -8 -8 -7 -17 1 -12 -6 -18 -21 -18 -11
0 -24 -3 -28 -7 -4 -4 -15 -3 -25 2 -10 5 -20 6 -24 3 -3 -3 -6 5 -6 18 0 14
-10 32 -24 42 -14 11 -24 28 -24 43 1 17 4 22 10 16 13 -13 38 -4 38 14 0 8
-9 14 -20 14 -18 0 -24 12 -23 48 1 16 -18 15 -44 -3 -18 -13 -22 -13 -26 -1
-4 9 -14 12 -26 9 -17 -4 -21 -1 -21 20 0 25 -25 55 -37 43 -3 -3 -1 -6 5 -6
17 0 24 -35 12 -65 -9 -25 -9 -27 10 -22 11 3 17 1 14 -4 -3 -6 7 -7 25 -4 24
4 31 2 31 -11 0 -11 -6 -14 -21 -9 -21 7 -22 5 -17 -39 3 -25 2 -46 -3 -46 -5
0 -9 11 -9 24 0 36 -38 42 -51 9 -5 -14 -7 -28 -4 -31 3 -3 5 0 5 6 0 7 8 12
19 12 15 0 17 -5 13 -27 -5 -25 -4 -27 11 -14 15 12 17 10 17 -27 0 -23 4 -43
9 -46 13 -8 21 47 9 62 -8 9 -6 12 6 12 13 0 16 -11 16 -50 0 -38 4 -50 15
-50 8 0 14 -5 12 -12 -1 -6 7 -14 17 -16 14 -3 17 0 13 13 -4 9 -3 14 3 10 6
-3 10 -15 10 -25 0 -26 -37 -22 -68 7 -31 28 -43 21 -38 -20 3 -18 5 -36 6
-42 0 -5 5 -2 11 8 6 9 7 27 4 40 -6 21 -6 21 9 3 9 -11 16 -23 16 -28 0 -4 7
-5 16 -1 14 5 15 3 5 -15 -10 -18 -9 -22 5 -22 15 0 15 -2 -1 -26 -13 -21 -14
-28 -4 -41 11 -13 10 -17 -5 -28 -23 -17 -13 -35 16 -27 14 3 19 2 14 -6 -4
-7 -14 -12 -22 -12 -8 0 -14 -4 -14 -10 0 -5 -6 -10 -12 -10 -9 0 -12 -15 -10
-50 4 -48 5 -50 30 -43 15 3 30 10 33 15 13 20 66 4 90 -29 13 -19 31 -32 40
-30 12 3 14 -2 11 -24 -3 -19 0 -29 8 -29 7 0 10 6 7 13 -3 8 -1 20 4 28 7 12
9 12 9 0 0 -11 3 -11 15 -1 11 9 15 9 15 1 0 -6 -9 -19 -19 -28 -11 -9 -17
-22 -14 -29 3 -8 0 -14 -6 -14 -6 0 -11 4 -11 10 0 5 -11 12 -25 16 -20 5 -24
11 -19 29 4 15 0 24 -11 29 -13 4 -16 2 -12 -9 4 -8 2 -17 -3 -20 -6 -4 -10
12 -10 37 0 28 -3 38 -9 29 -7 -11 -9 -11 -14 0 -4 10 -6 9 -6 -3 -1 -9 5 -19
12 -21 9 -4 9 -6 0 -6 -7 -1 -13 -10 -13 -22 0 -12 4 -17 11 -13 7 4 9 0 5
-14 -4 -13 -1 -22 9 -26 8 -3 15 -13 15 -21 0 -9 -5 -13 -10 -10 -6 4 -8 10
-5 15 2 4 -6 10 -19 12 -19 4 -23 1 -19 -11 4 -9 10 -21 15 -27 5 -7 3 -14 -8
-18 -22 -8 -38 3 -25 17 9 12 -17 46 -29 39 -2 -2 -6 2 -8 10 -3 11 -2 11 6 0
15 -22 23 -19 38 16 13 33 8 105 -6 82 -5 -8 -26 -11 -57 -9 l-49 4 14 -30 c7
-16 16 -37 20 -45 15 -30 -3 -185 -18 -161 -5 9 -11 8 -23 -4 -9 -9 -22 -13
-28 -9 -9 5 -10 -2 -6 -24 5 -24 3 -32 -7 -32 -8 0 -17 6 -20 13 -3 6 -4 0 -1
-15 3 -16 1 -28 -5 -28 -13 0 -13 57 0 65 6 3 10 14 10 23 0 11 -3 13 -8 5 -4
-6 -25 -14 -46 -18 -28 -6 -37 -5 -32 4 5 7 1 9 -10 4 -13 -5 -15 -3 -6 13 6
11 8 32 5 47 -4 22 -2 27 14 27 11 0 28 7 39 16 16 13 16 15 2 10 -10 -3 -18
-1 -18 4 0 6 -8 10 -18 10 -21 0 -55 -37 -47 -50 4 -6 1 -10 -4 -10 -14 0 -14
37 -1 45 6 3 10 17 10 31 0 14 4 22 10 19 6 -3 10 3 10 14 0 14 -6 21 -20 21
-11 0 -20 -4 -20 -10 0 -5 -5 -10 -11 -10 -8 0 -10 12 -6 35 3 19 2 35 -4 35
-5 0 -9 -13 -9 -30 0 -26 -3 -30 -29 -30 -35 0 -46 27 -21 50 20 19 33 50 20
50 -6 0 -10 -5 -10 -11 0 -8 -5 -8 -15 1 -19 16 -19 37 0 56 9 10 15 11 15 4
0 -19 29 -42 45 -36 17 6 21 46 5 46 -5 0 -10 -7 -10 -16 0 -13 -3 -14 -15 -4
-8 7 -14 27 -13 47 1 24 -5 40 -16 49 -17 12 -17 14 4 41 l22 28 -7 -30 c-6
-27 -5 -28 8 -12 17 21 24 21 42 3 12 -12 12 -15 0 -19 -7 -3 -16 -1 -18 6 -2
7 -3 5 -3 -3 1 -17 76 -28 76 -11 0 6 -7 11 -16 11 -12 0 -15 7 -11 25 2 14 2
23 -1 20 -3 -2 -11 0 -18 6 -8 7 -14 7 -19 -1 -9 -15 -25 -12 -25 5 0 8 -4 15
-10 15 -5 0 -10 7 -10 15 0 14 30 21 69 16 11 -2 11 0 0 12 -8 8 -18 12 -24 9
-18 -11 -45 -12 -45 -2 0 15 -30 12 -36 -4 -3 -8 -12 -12 -20 -9 -8 3 -14 0
-14 -6 0 -6 -7 -8 -15 -5 -17 7 -19 -4 -6 -25 8 -12 12 -13 25 -1 9 7 19 10
23 7 3 -4 -2 -9 -11 -13 -9 -4 -23 -19 -31 -34 -13 -25 -13 -29 1 -34 12 -4
13 -10 4 -26 -6 -11 -8 -25 -4 -31 3 -6 -2 -16 -12 -24 -18 -13 -18 -14 4 -33
24 -21 29 -36 10 -30 -7 3 -23 -5 -36 -16 -13 -12 -25 -19 -26 -16 -2 3 -10
-1 -19 -8 -10 -9 -17 -10 -22 -2 -3 5 -11 10 -17 10 -6 0 -4 -8 4 -17 21 -23
38 -87 28 -103 -5 -9 -9 -9 -14 -1 -4 6 -4 16 -1 21 7 11 -22 26 -31 17 -3 -3
0 -14 7 -26 7 -11 11 -23 8 -26 -10 -10 -36 6 -47 28 -10 20 -11 20 -11 -10
-1 -31 9 -39 42 -34 4 0 7 -9 7 -22 0 -13 -3 -17 -8 -11 -4 7 -15 8 -27 3 -11
-4 -17 -8 -12 -10 17 -4 23 -6 40 -13 22 -10 23 -30 0 -22 -9 4 -20 2 -23 -5
-5 -7 -17 7 -31 35 -12 25 -28 46 -36 46 -7 0 -13 6 -14 13 0 6 -4 2 -9 -10
-5 -13 -14 -23 -20 -23 -5 0 -10 -7 -10 -15 0 -8 5 -15 11 -15 8 0 8 -5 -1
-15 -15 -18 -37 -8 -54 26 -7 14 -20 24 -33 24 -12 0 -25 3 -28 7 -4 4 -16 3
-27 -3 -18 -10 -19 -8 -13 20 l6 30 -30 -15 c-39 -19 -49 -35 -20 -31 12 1 24
-4 26 -11 4 -10 -4 -12 -33 -6 -22 4 -41 10 -44 15 -3 4 -15 -4 -28 -18 -14
-15 -17 -23 -8 -20 9 4 18 2 21 -3 3 -5 11 -7 18 -4 7 2 28 -7 46 -20 25 -19
38 -23 52 -16 10 6 25 7 33 4 22 -9 20 6 -6 33 -19 20 -13 35 6 16 8 -8 13 -9
41 -12 8 0 15 -8 15 -16 0 -17 46 -39 67 -31 8 3 13 -2 13 -13 0 -11 6 -22 13
-25 6 -3 -1 -2 -17 1 -25 5 -28 3 -22 -12 5 -15 4 -16 -9 -5 -8 7 -23 10 -34
7 -24 -6 -46 7 -37 22 4 6 17 11 28 11 21 0 21 0 2 21 -18 20 -18 20 -25 1 -9
-23 -29 -38 -29 -22 0 6 -5 8 -10 5 -6 -4 -8 -11 -5 -16 4 -5 2 -9 -4 -9 -5 0
-11 5 -13 12 -3 8 -12 7 -34 -3 -22 -11 -28 -20 -26 -38 2 -15 0 -21 -7 -17
-6 4 -11 3 -11 -3 0 -5 5 -13 10 -16 6 -3 10 -2 10 3 0 5 11 7 25 4 28 -5 33
-17 9 -26 -26 -10 -54 -7 -54 6 0 9 -3 9 -12 0 -10 -10 -10 -15 2 -22 23 -15
57 -12 75 6 15 15 17 15 30 -2 8 -11 15 -14 15 -8 0 6 -7 17 -15 24 -12 10
-13 16 -3 28 11 13 10 15 -4 9 -12 -4 -18 -2 -18 8 0 24 37 18 44 -7 5 -22 6
-22 20 -3 15 20 15 20 30 0 13 -16 15 -17 10 -2 -4 10 -1 17 6 17 14 0 34 -21
38 -40 3 -15 10 -21 49 -48 17 -11 16 -12 -7 -11 -48 2 -70 -1 -70 -10 0 -5
14 -7 30 -5 17 3 30 1 30 -5 0 -5 8 -8 18 -6 9 2 28 4 42 5 14 1 19 4 12 7 -6
2 -12 12 -12 20 0 10 6 13 15 9 9 -3 18 1 21 9 7 17 44 21 44 5 0 -5 7 -10 16
-10 8 0 12 -5 9 -10 -4 -6 -12 -7 -22 -1 -18 10 -62 -23 -49 -36 4 -5 13 0 20
10 21 27 25 21 22 -32 -5 -68 -14 -91 -37 -91 -10 0 -19 -4 -19 -10 0 -5 -7
-10 -16 -10 -8 0 -13 4 -10 9 5 7 -34 41 -47 41 -12 0 -15 -45 -4 -52 8 -5 7
-8 -5 -8 -14 0 -17 -7 -14 -30 4 -37 -3 -45 -20 -22 -8 10 -13 12 -14 5 0 -7
-7 -13 -15 -13 -21 0 -19 -17 4 -30 29 -15 104 -13 95 3 -4 6 3 3 15 -8 18
-16 25 -17 42 -7 11 7 19 8 19 2 0 -5 9 -10 20 -10 11 0 20 -4 20 -10 0 -5 -7
-10 -15 -10 -11 0 -15 -11 -15 -39 0 -30 -4 -40 -17 -43 -19 -4 -52 10 -66 27
-5 6 -5 0 -2 -12 4 -15 2 -23 -6 -23 -8 0 -8 -4 1 -15 7 -9 21 -13 31 -10 15
5 19 1 20 -17 l1 -23 6 23 c4 13 12 22 17 21 30 -5 33 -11 14 -30 -13 -13 -17
-27 -13 -44 5 -22 3 -24 -12 -18 -11 3 -22 11 -26 17 -5 7 -8 7 -8 -1 0 -7 -4
-13 -10 -13 -5 0 -10 7 -10 16 0 24 -39 69 -61 70 -15 1 -17 -2 -8 -12 6 -8
18 -14 26 -14 8 0 11 -5 8 -10 -3 -6 1 -17 9 -26 25 -25 20 -47 -8 -40 -34 8
-41 -8 -10 -23 14 -6 22 -16 19 -21 -8 -13 -35 -13 -35 0 0 6 -4 10 -10 10
-12 0 -13 -10 -2 -27 10 -16 60 -4 64 15 3 14 5 13 21 -2 20 -20 20 -25 7 -46
-9 -13 -12 -13 -21 3 -12 21 -32 22 -49 2 -9 -11 -8 -18 9 -36 23 -25 27 -39
11 -39 -5 0 -10 6 -10 13 0 8 -4 7 -10 -3 -9 -14 -15 -7 -10 15 1 6 -4 5 -11
-2 -18 -18 -3 -43 26 -43 16 0 25 -6 25 -15 0 -8 -7 -15 -15 -15 -9 0 -15 -9
-15 -22 0 -19 -2 -20 -10 -8 -7 11 -10 5 -10 -24 0 -30 -3 -37 -15 -32 -13 5
-12 1 2 -19 12 -17 25 -24 41 -22 17 3 22 0 22 -18 0 -23 -28 -55 -48 -55 -7
0 -12 5 -12 10 0 6 -11 3 -24 -5 -15 -10 -27 -12 -30 -6 -4 5 -23 8 -44 6 -20
-2 -42 1 -49 7 -18 15 -17 -9 1 -27 17 -17 36 -20 59 -10 25 11 32 -1 12 -21
-16 -17 -79 -29 -70 -14 8 13 -21 31 -39 24 -21 -8 -21 10 1 31 24 25 -1 37
-57 29 -25 -4 -56 -7 -69 -7 -15 1 -28 -8 -40 -28 -12 -21 -24 -29 -44 -29
-18 0 -27 4 -25 12 6 18 -16 37 -44 40 -13 2 -25 6 -28 9 -3 3 -17 9 -32 13
-22 5 -26 3 -22 -9 4 -8 17 -15 30 -15 32 0 31 -28 -1 -36 -14 -4 -29 -3 -32
0 -4 4 -7 35 -7 69 -1 55 1 62 19 62 16 0 19 6 17 25 -2 14 -8 26 -13 28 -4 2
-6 17 -2 33 3 18 1 29 -6 29 -6 0 -11 -8 -11 -18 0 -11 -8 -18 -23 -19 -20 -2
-20 -1 -4 8 12 7 16 17 12 30 -4 11 -2 19 4 19 6 0 11 6 11 13 0 9 -11 13 -32
11 -29 -3 -30 -2 -8 4 16 5 21 11 13 15 -6 4 -24 2 -40 -4 l-28 -11 30 -14
c29 -13 29 -14 8 -20 -13 -3 -23 -11 -23 -16 0 -5 -6 -6 -12 -2 -7 4 -5 -1 4
-12 14 -16 15 -23 6 -32 -9 -9 -8 -12 5 -12 9 0 17 -3 17 -7 -1 -13 -30 -48
-38 -45 -3 2 -8 -1 -10 -7 -2 -6 1 -11 6 -11 6 0 13 -10 15 -22 4 -20 4 -20 6
4 1 30 21 49 21 21 0 -10 3 -28 6 -40 5 -19 2 -23 -17 -24 l-24 0 23 -10 c24
-9 22 -29 -4 -29 -19 0 -18 -26 2 -34 8 -3 12 -11 8 -17 -4 -7 1 -18 11 -25
17 -13 16 -14 -9 -23 -23 -9 -26 -16 -26 -56 0 -42 2 -45 28 -46 l27 -1 -27
-10 c-34 -12 -36 -40 -5 -62 14 -10 16 -14 5 -10 -19 7 -23 -6 -19 -61 2 -21
-1 -27 -8 -20 -7 7 -13 80 -16 185 -2 95 -10 218 -16 273 -10 78 -10 153 0
351 7 138 12 256 11 261 -5 23 1 33 18 28 10 -2 24 3 31 11 9 11 10 16 2 16
-6 0 -11 -4 -11 -10 0 -6 -9 -6 -22 -1 -20 7 -25 22 -40 107 -31 183 -41 210
-117 311 -44 60 -50 64 -148 103 -56 22 -106 40 -111 40 -17 0 -213 68 -395
136 l-67 26 19 26 c10 15 24 38 31 52 12 23 12 24 -3 11 -12 -9 -17 -10 -17
-2 0 7 -5 9 -11 5 -8 -5 -8 -8 0 -13 7 -5 5 -12 -7 -23 -9 -8 -25 -25 -35 -37
-10 -12 -21 -20 -25 -17 -4 2 -18 -11 -31 -29 -13 -19 -32 -37 -42 -40 -11 -4
-17 -11 -14 -16 4 -5 -1 -9 -9 -9 -8 0 -20 -9 -27 -21 -9 -18 -17 -20 -47 -14
-21 3 -47 13 -60 21 -12 8 -28 12 -34 8 -8 -5 -9 -2 -5 9 6 16 4 16 -17 2 -12
-8 -26 -12 -29 -8 -24 24 25 93 66 93 14 0 35 9 48 20 35 29 10 42 -68 35
-106 -10 -76 25 69 79 53 20 103 36 110 36 23 0 58 -30 58 -50 0 -11 9 -24 20
-30 19 -10 20 -8 20 40 0 63 -22 120 -47 120 -15 0 -16 -2 -3 -10 12 -7 10
-12 -10 -30 -27 -24 -37 -26 -140 -36 -110 -10 -149 -9 -162 4 -9 9 -8 15 4
24 9 7 18 22 20 32 1 11 9 21 16 24 11 3 11 1 0 -18 -11 -18 -11 -23 6 -35 10
-8 23 -12 27 -9 13 8 11 48 -3 62 -7 7 -8 12 -4 12 5 0 3 7 -4 15 -7 8 -23 15
-35 15 -34 0 -44 43 -45 198 0 107 4 151 24 235 29 122 46 205 52 253 5 38 27
89 44 99 14 9 12 -12 -4 -60 -8 -22 -17 -80 -21 -130 -4 -49 -12 -98 -17 -108
-10 -20 -2 -57 13 -57 5 0 9 -5 9 -10 0 -12 50 -59 63 -60 5 0 15 -7 23 -15
18 -18 95 -20 111 -4 15 15 5 39 -14 39 -9 0 0 11 20 24 38 26 62 25 104 -2
20 -13 24 -12 29 2 7 18 -21 56 -41 56 -7 0 -30 14 -51 31 -36 29 -43 30 -119
29 -128 -3 -119 -8 -112 53 8 62 32 158 51 201 8 17 17 41 21 54 3 12 12 22
18 22 7 0 17 10 22 23 6 12 20 26 32 32 12 5 24 16 27 25 2 8 4 2 5 -13 1 -17
5 -26 12 -22 6 4 10 1 9 -6 -3 -21 11 -59 21 -59 5 0 9 -12 9 -26 0 -15 13
-54 29 -88 48 -100 63 -148 66 -204 4 -63 11 -74 31 -48 13 18 14 17 14 -18 0
-21 7 -44 17 -54 15 -15 16 -14 9 23 -12 64 19 26 44 -53 11 -37 25 -82 32
-101 6 -19 10 -54 10 -78 -1 -26 3 -41 8 -38 6 3 10 19 10 36 0 16 5 29 10 29
19 0 11 -69 -9 -79 -12 -7 -20 -27 -25 -61 -4 -29 -16 -75 -27 -104 -11 -30
-17 -61 -13 -70 4 -12 2 -15 -9 -10 -11 4 -19 -5 -27 -32 -13 -38 -12 -39 26
-71 42 -37 86 -53 92 -34 5 14 69 5 91 -13 11 -9 13 -4 9 27 -2 20 0 37 4 37
4 0 9 17 9 38 2 34 2 35 7 7 4 -24 6 -27 11 -11 7 17 8 17 23 2 9 -8 18 -20
20 -26 2 -6 11 -8 21 -4 16 6 15 11 -13 60 -16 30 -30 60 -30 68 0 7 -6 19
-14 25 -8 6 -16 23 -19 37 -3 20 1 27 19 34 13 5 26 21 30 35 5 20 9 23 20 14
10 -8 18 -9 27 0 8 6 16 8 19 5 3 -3 2 16 -3 42 -12 61 -4 86 31 106 18 10 30
25 30 38 0 11 7 23 15 26 8 4 15 15 15 25 0 25 30 59 52 59 9 0 20 5 23 11 4
6 13 8 21 5 8 -3 11 0 7 10 -7 18 -22 18 -29 -1 -7 -16 -24 -21 -24 -6 0 5 7
16 15 25 20 19 19 32 0 16 -9 -7 -19 -9 -23 -5 -4 4 -1 10 6 12 6 3 10 9 6 14
-3 5 6 14 20 20 16 8 22 17 19 27 -5 11 -2 13 6 7 10 -6 11 -3 2 13 -6 11 -16
23 -23 25 -7 3 -5 6 6 6 20 1 14 15 -7 17 -7 0 -20 2 -30 2 -10 1 -15 6 -12
12 4 6 -6 7 -25 4 -30 -6 -43 9 -17 19 9 4 8 6 -2 6 -26 2 9 30 45 37 19 3 34
10 34 14 0 5 -14 5 -31 0 -37 -11 -72 6 -65 33 2 10 -1 17 -10 17 -17 0 -18
17 -1 23 10 4 10 6 0 6 -7 1 -13 8 -13 16 0 8 -6 15 -12 15 -7 0 -5 5 5 11 21
13 22 29 1 29 -39 0 -110 71 -105 104 1 5 -5 27 -14 48 -8 22 -13 44 -10 49 4
5 -10 28 -29 51 -20 23 -36 51 -35 62 0 12 3 15 6 8 2 -6 9 -10 13 -7 14 9 0
34 -15 29 -8 -4 -22 15 -39 50 -29 62 -32 81 -12 73 8 -3 20 2 28 10 11 15 11
16 -6 10 -14 -6 -17 -4 -12 8 4 11 -1 15 -18 15 -24 0 -56 28 -56 48 0 7 -4
12 -10 12 -20 0 -9 26 18 42 15 10 21 18 13 18 -8 0 -22 -7 -32 -16 -17 -15
-19 -15 -35 1 -14 14 -15 18 -3 25 11 8 -937 7 -1012 0 -20 -2 -25 -8 -22 -21
3 -11 -6 -25 -26 -40 -17 -12 -31 -29 -31 -37 0 -7 -27 -41 -60 -74 -59 -59
-67 -69 -52 -67 21 4 23 -3 7 -21 -11 -12 -21 -16 -25 -11 -9 16 -50 1 -43
-15 3 -8 0 -14 -6 -14 -6 0 -11 5 -11 10 0 6 -4 10 -9 10 -5 0 -7 -9 -4 -20 7
-25 22 -26 39 -3 16 22 32 8 18 -15 -13 -19 -84 -25 -77 -6 6 15 -52 38 -78
31 -14 -4 -29 2 -46 19 -26 27 -45 32 -37 10 3 -8 0 -17 -6 -21 -7 -4 -10 0
-8 11 2 14 -3 19 -22 19 -19 0 -25 6 -27 25 -1 17 0 19 4 6 4 -15 7 -16 14 -5
8 12 10 12 18 -1 6 -8 12 -12 15 -9 3 3 -3 15 -14 27 -11 12 -20 26 -20 33 0
8 -5 7 -16 -2 -15 -12 -16 -11 -10 7 7 23 -18 42 -29 24 -4 -6 -1 -10 4 -10 6
0 11 -5 11 -11 0 -6 -7 -9 -15 -5 -8 3 -15 2 -15 -3 0 -9 -60 -11 -61 -2 0 3
-2 14 -4 24 -2 12 3 17 21 17 16 0 24 -6 24 -17 0 -12 8 -6 22 17 14 23 23 30
25 20 6 -25 47 -39 69 -23 10 8 29 11 42 8 15 -4 22 -1 22 10 0 8 6 15 13 16
6 0 27 2 46 5 19 2 40 -1 48 -7 11 -9 12 -8 7 5 -5 12 -20 16 -65 16 -41 0
-58 4 -56 12 1 7 -9 14 -23 16 -14 2 -28 9 -32 15 -3 6 -20 10 -37 10 -33 0
-41 14 -15 24 9 3 20 0 24 -8 7 -11 10 -10 16 4 7 20 30 23 36 5 3 -7 16 -13
29 -14 13 -1 32 -5 42 -9 30 -13 19 13 -13 28 -35 18 -245 24 -235 7 3 -5 13
-10 21 -10 9 0 14 -10 14 -27 l0 -28 -25 27 c-14 15 -25 31 -25 36 0 4 -16 8
-35 9 -19 1 -33 -3 -30 -7 9 -15 -17 -23 -27 -9 -7 11 -11 11 -15 2 -7 -18
-23 -16 -23 2 0 18 -12 19 -28 3 -7 -7 -12 -8 -12 -2 0 5 -13 9 -29 9 -16 1
-27 -3 -25 -7 3 -4 -1 -8 -8 -9 -7 0 -24 -2 -38 -4 -32 -3 -46 5 -29 16 10 6
6 9 -14 9 -25 0 -26 -2 -15 -20 7 -11 15 -20 18 -21 37 -6 57 -5 68 4 9 7 16
7 23 0 7 -7 22 -8 40 -3 17 5 29 5 29 -1 0 -5 9 -9 20 -9 11 0 20 -5 20 -11 0
-6 7 -8 16 -5 8 3 22 -1 30 -9 20 -20 35 -19 27 1 -4 12 -2 15 8 12 22 -7 23
-87 1 -95 -9 -4 -20 -11 -23 -16 -3 -5 -9 -1 -13 8 -4 12 0 18 14 22 11 3 20
9 20 14 0 15 -19 10 -38 -9 -17 -17 -20 -18 -31 -3 -11 14 -11 14 -7 -1 8 -27
-9 -21 -22 7 -11 23 -10 24 17 19 16 -3 32 -1 35 5 4 5 14 7 24 4 14 -5 15 -3
5 8 -10 10 -16 10 -25 1 -17 -17 -24 -15 -56 16 -35 33 -64 37 -80 11 -12 -18
-10 -19 27 -13 23 4 41 2 45 -4 6 -10 -39 -22 -74 -20 -9 1 -29 -2 -45 -6
l-30 -6 37 35 c31 29 34 35 18 35 -11 0 -20 -7 -20 -15 0 -8 -8 -15 -17 -15
-20 -1 -53 -23 -53 -35 0 -9 -51 -58 -55 -53 -2 2 -5 12 -7 23 -2 14 3 20 16
20 25 0 34 25 9 26 -12 0 -7 6 14 15 39 17 41 22 11 33 -15 5 -26 4 -30 -3 -5
-6 -8 -1 -8 12 0 20 4 22 22 16 20 -6 21 -5 7 9 -9 8 -33 15 -54 15 -29 0 -45
-7 -67 -30 -31 -32 -53 -31 -25 0 10 10 17 22 17 25 0 4 -61 7 -135 6 -107 -1
-135 -5 -135 -15 0 -17 -17 -18 -23 -1 -4 10 -6 10 -6 0 -1 -19 -32 -16 -48 5
-13 16 -14 15 -10 -10 3 -21 0 -26 -14 -25 -12 1 -15 5 -9 11 13 13 13 29 1
21 -5 -3 -12 -2 -15 3 -2 4 -39 9 -82 10 -67 3 -76 1 -70 -13 3 -9 2 -13 -3
-10 -5 3 -12 -3 -14 -12 -3 -11 -5 -8 -6 10 -1 27 -2 27 -71 27 l-70 0 0 -64z
m5198 -138 c18 -18 15 -28 -8 -28 -26 0 -25 -15 1 -41 15 -15 19 -27 14 -42
-4 -12 -7 -32 -7 -44 0 -17 -6 -23 -23 -23 -27 0 -42 -17 -27 -32 6 -6 12 -6
16 1 4 6 14 11 22 11 21 0 20 -86 -2 -94 -12 -4 -15 -2 -10 9 11 29 -3 45 -32
34 -18 -7 -28 -7 -30 0 -2 6 -8 8 -13 5 -7 -4 -7 -10 0 -17 6 -8 5 -21 -4 -37
l-13 -25 -10 26 c-7 17 -7 42 0 72 10 51 22 60 32 25 5 -18 8 -20 15 -9 5 7 6
22 4 32 -4 15 -1 18 11 13 12 -4 16 0 16 15 0 18 -5 21 -32 19 -18 -1 -37 -7
-41 -13 -5 -5 -6 5 -3 25 4 18 12 38 19 42 17 11 37 10 37 -2 0 -5 -7 -7 -15
-4 -10 4 -15 0 -15 -15 0 -17 4 -19 23 -12 13 5 36 7 53 4 l29 -6 -20 24 c-11
13 -25 29 -31 34 -17 15 -5 65 15 65 9 0 22 -5 29 -12z m347 -35 c12 -16 14
-16 40 1 27 18 29 18 42 0 16 -22 17 -34 1 -34 -9 0 -8 -4 2 -11 13 -9 13 -10
0 -6 -8 2 -15 14 -14 27 1 22 0 22 -15 3 -9 -11 -22 -18 -28 -17 -7 1 -17 2
-22 3 -5 0 -12 11 -16 24 -3 12 -8 17 -11 10 -3 -7 6 -29 20 -50 14 -21 26
-32 26 -25 0 7 5 10 11 6 6 -3 15 -1 19 6 6 9 10 6 15 -9 6 -19 9 -20 22 -9
13 10 15 9 11 -7 -2 -11 -9 -19 -15 -18 -15 3 -46 -34 -38 -46 3 -6 12 -11 18
-10 9 0 8 2 -1 6 -21 8 -4 21 23 15 18 -3 24 -9 21 -19 -3 -8 -6 -19 -6 -25 0
-7 -5 -6 -14 1 -10 8 -16 9 -21 1 -3 -5 -1 -10 4 -10 6 0 11 -9 11 -21 0 -11
5 -17 10 -14 6 3 10 -4 9 -17 0 -13 -3 -17 -6 -10 -4 10 -8 10 -19 1 -11 -9
-14 -9 -14 0 0 7 -5 9 -10 6 -14 -9 -25 24 -12 37 8 8 8 17 1 30 -6 10 -9 33
-7 50 2 19 -2 33 -10 35 -7 3 -11 1 -10 -4 2 -4 -1 -9 -7 -11 -5 -2 -12 7 -15
19 -3 12 -12 25 -20 29 -8 4 -26 13 -39 19 -19 11 -25 10 -32 -1 -6 -9 -9 -7
-9 8 0 12 6 22 13 21 33 -1 47 4 47 18 0 20 30 19 45 -2z m-4303 -55 c4 -10
10 -10 31 -1 18 9 28 9 33 2 7 -12 -13 -29 -33 -29 -15 0 -18 -29 -3 -31 9 -1
20 -4 35 -8 2 0 -8 -13 -22 -27 -14 -14 -28 -22 -32 -16 -3 5 -17 11 -31 14
-23 4 -25 1 -25 -31 0 -29 -4 -36 -27 -42 -20 -5 -28 -3 -33 9 -3 8 0 19 7 23
7 4 9 11 5 16 -4 4 -16 2 -26 -4 -20 -12 -47 -1 -37 15 3 6 1 14 -5 18 -8 4
-9 3 -5 -4 8 -13 4 -15 -17 -6 -9 3 -13 13 -10 24 3 10 11 16 18 14 7 -3 16 0
21 7 4 7 3 10 -4 5 -6 -3 -13 -2 -17 4 -3 5 6 12 20 16 14 3 25 10 25 15 0 5
7 6 15 3 20 -8 19 -33 -1 -41 -12 -4 -13 -8 -3 -13 7 -5 18 -2 26 6 19 18 34
18 27 -1 -7 -18 12 -19 49 -2 28 13 36 27 14 27 -19 0 -36 20 -30 36 6 17 30
18 35 2z m-132 -194 c0 -14 48 -25 56 -13 3 5 9 9 13 9 12 0 21 -38 10 -42 -5
-2 -5 -18 1 -38 9 -30 7 -37 -15 -60 l-25 -26 35 -14 c23 -9 31 -16 23 -21 -7
-4 -15 -6 -19 -3 -15 9 -119 12 -125 3 -3 -5 4 -9 14 -9 15 0 19 -5 15 -19 -4
-17 -7 -16 -34 9 -28 25 -32 60 -7 60 6 0 5 -6 -2 -15 -10 -12 -10 -15 3 -15
8 0 18 11 21 25 4 14 11 25 16 25 5 0 7 -7 4 -15 -4 -8 -1 -15 5 -15 6 0 11 5
11 11 0 6 7 8 16 5 8 -3 12 -2 9 3 -3 5 4 16 15 24 l20 14 -22 28 -21 28 22
-13 c13 -6 25 -10 27 -7 2 2 -14 12 -36 22 -24 11 -40 25 -40 35 0 13 -8 17
-27 16 -16 -1 -34 -5 -40 -9 -18 -12 -16 4 2 17 20 14 75 14 75 0z m-152 -63
c11 -6 23 -7 27 -3 5 4 5 2 1 -5 -3 -6 3 -18 15 -26 22 -16 11 -31 -15 -21
-11 4 -16 1 -16 -10 0 -9 6 -16 13 -16 9 0 9 -2 -1 -9 -11 -7 -11 -9 2 -14 9
-4 16 -2 16 3 0 6 5 10 11 10 8 0 7 -5 -1 -15 -10 -12 -10 -19 -2 -27 8 -8 9
-15 1 -25 -8 -9 -8 -13 0 -13 6 0 11 -5 11 -11 0 -6 -8 -8 -19 -4 -11 3 -22 1
-26 -5 -3 -5 1 -10 9 -10 9 0 16 -4 16 -10 0 -5 8 -10 18 -11 9 -1 0 -6 -21
-11 -44 -12 -49 -9 -50 29 -1 15 -8 35 -16 43 -13 13 -14 13 -8 -3 6 -15 3
-17 -14 -12 -14 5 -28 0 -45 -16 -24 -22 -24 -22 -24 -1 0 11 -5 24 -10 27 -8
5 -7 11 1 21 8 10 8 14 0 14 -6 0 -11 5 -11 11 0 6 9 8 21 4 13 -5 25 -2 29 6
7 10 14 9 34 -4 31 -21 36 -21 36 -2 0 8 -5 15 -11 15 -5 0 -8 3 -5 8 2 4 -4
25 -14 47 -11 22 -19 46 -20 53 0 14 36 10 68 -7z m76 -267 c41 6 77 -6 63
-21 -5 -4 -12 -2 -16 5 -5 9 -20 11 -49 6 -23 -4 -39 -11 -36 -16 3 -5 -2 -15
-12 -22 -12 -9 -14 -15 -6 -20 7 -4 12 -2 12 3 0 6 4 11 10 11 5 0 7 -7 4 -15
-4 -8 -14 -15 -24 -15 -27 0 -36 -21 -15 -36 14 -10 22 -11 32 -2 11 9 18 7
31 -7 16 -17 16 -17 -2 -11 -16 5 -17 4 -6 -9 13 -16 50 -21 50 -7 0 5 11 15
25 22 26 14 34 40 13 40 -10 0 -10 2 0 9 8 4 13 12 12 17 -1 5 4 10 11 13 7 2
9 -1 4 -9 -6 -10 -4 -12 8 -7 9 3 19 2 22 -3 4 -6 12 -5 20 3 9 8 10 16 3 25
-7 8 -7 12 1 12 6 0 12 -4 12 -10 1 -5 2 -14 3 -19 0 -5 4 -13 9 -17 4 -4 7
-18 7 -31 0 -13 4 -23 9 -23 5 0 8 -22 5 -50 -4 -49 -4 -50 20 -40 20 7 24 6
19 -5 -3 -8 0 -15 6 -15 6 0 11 -4 11 -9 0 -5 -19 -13 -42 -17 -24 -4 -35 -9
-25 -12 9 -2 15 -8 12 -13 -4 -5 -1 -9 4 -9 6 0 11 5 11 10 0 6 16 10 35 10
19 0 35 -4 35 -10 0 -5 -7 -10 -16 -10 -17 0 -43 -27 -43 -45 0 -5 8 0 18 12
17 20 20 21 26 6 4 -11 -1 -22 -11 -30 -10 -7 -12 -13 -6 -13 7 0 12 -9 12
-21 0 -16 -4 -19 -22 -14 l-23 7 23 -17 c12 -9 22 -22 22 -29 0 -19 40 -57 52
-50 6 4 8 -1 3 -16 -4 -14 -3 -20 3 -16 5 3 13 -1 16 -10 3 -8 11 -14 18 -13
30 4 58 -2 58 -12 0 -5 -4 -8 -9 -4 -6 3 -15 -4 -21 -15 -7 -13 -18 -19 -33
-17 -12 2 -15 2 -7 -1 12 -4 11 -7 -5 -13 -13 -6 -3 -7 29 -3 39 4 48 3 43 -8
-2 -8 1 -22 8 -32 13 -17 15 -17 42 1 l28 18 -32 -44 c-31 -43 -44 -91 -24
-91 5 0 7 -10 3 -22 -5 -21 -4 -22 12 -9 23 19 30 8 14 -25 -11 -22 -33 -34
-138 -70 -69 -23 -145 -50 -170 -59 -58 -21 -269 -125 -337 -165 -30 -18 -53
-26 -53 -20 0 7 -7 10 -16 6 -23 -9 -37 3 -23 20 10 12 9 13 -5 8 -20 -8 -20
-18 0 -38 14 -15 14 -16 -5 -16 -12 0 -21 6 -21 16 0 8 -4 13 -8 10 -5 -3 -20
5 -34 17 -30 25 -45 105 -20 99 11 -2 12 7 7 37 -4 24 -2 41 4 46 6 3 11 1 11
-5 0 -7 7 -10 15 -6 9 3 15 0 15 -9 0 -18 21 -15 37 5 11 13 13 11 14 -10 1
-17 3 -20 6 -7 2 9 8 17 12 17 3 0 8 12 9 26 1 19 -2 25 -12 21 -9 -4 -16 3
-20 15 -4 18 -7 19 -20 8 -11 -8 -16 -9 -16 -1 0 6 5 11 10 11 6 0 15 11 20
25 5 14 14 25 19 25 13 0 21 39 9 47 -7 3 -8 1 -4 -5 4 -7 1 -12 -8 -12 -17 0
-46 53 -46 87 0 14 6 23 15 23 8 0 15 -6 15 -13 0 -8 9 -22 20 -32 18 -16 20
-16 20 -2 0 9 9 21 21 28 18 9 20 8 15 -9 -4 -11 -2 -23 4 -27 5 -3 10 1 10 9
0 9 7 16 16 16 10 0 14 -5 10 -16 -3 -8 -2 -12 4 -9 18 11 11 35 -10 35 -17 0
-20 7 -20 40 0 41 -7 49 -28 28 -15 -15 -16 -32 -2 -23 6 3 10 -1 10 -9 0 -14
-12 -20 -32 -17 -5 0 -8 -4 -8 -10 0 -7 -9 0 -21 15 -27 35 -19 56 24 56 18 0
38 5 44 11 8 8 18 6 37 -6 17 -12 26 -13 26 -5 0 8 10 9 30 5 34 -7 42 10 10
20 -11 3 -20 11 -20 17 0 6 -9 8 -19 5 -25 -6 -36 29 -13 42 13 7 12 10 -6 20
-18 10 -22 9 -22 -4 0 -8 -7 -15 -15 -15 -19 0 -18 8 6 45 11 17 22 37 25 46
3 9 23 22 45 28 43 13 49 25 20 41 -27 14 -30 13 -24 -10 4 -17 1 -20 -21 -18
-34 3 -33 20 6 58 25 26 29 34 17 41 -9 6 -10 9 -2 9 7 0 10 7 7 15 -10 26
-22 16 -18 -15 3 -28 -4 -35 -28 -31 -5 0 -8 -4 -8 -9 0 -5 -4 -10 -10 -10
-19 0 -10 29 11 35 l21 7 -22 12 c-22 11 -28 25 -12 27 4 1 15 5 25 10 18 10
24 49 7 49 -5 0 -10 -6 -10 -14 0 -8 -7 -16 -15 -20 -21 -8 -19 0 10 38 14 18
25 36 25 39 0 13 -30 7 -31 -5 0 -9 -2 -9 -6 1 -4 11 -7 11 -13 1 -7 -11 -11
-10 -22 1 -23 24 -15 43 25 57 47 16 60 7 28 -19 -25 -21 -21 -25 10 -9 10 6
19 17 19 26 0 8 8 18 18 21 18 7 32 22 32 37 0 4 -7 5 -16 2 -13 -5 -14 -4 -6
7 7 8 9 17 6 20 -4 3 -4 13 0 22 5 13 10 14 27 4 12 -6 39 -8 63 -5z m4004
-686 c7 -7 12 -19 12 -28 0 -24 40 -54 53 -41 8 8 6 11 -6 11 -9 0 -17 5 -17
10 0 6 9 10 19 10 11 0 21 6 24 13 2 6 8 -1 12 -17 6 -23 4 -32 -10 -43 -15
-10 -16 -16 -7 -25 16 -16 16 -69 0 -65 -21 4 -20 -30 2 -36 13 -3 20 -13 20
-29 0 -18 2 -20 10 -8 11 18 23 8 14 -14 -8 -20 -18 -20 -38 -1 -8 8 -26 15
-40 15 -14 0 -28 5 -31 10 -5 8 -11 7 -21 -1 -11 -9 -17 -9 -28 0 -12 10 -14
4 -13 -36 1 -26 6 -51 12 -55 5 -4 2 -10 -8 -14 -24 -9 -56 21 -50 47 3 12 15
24 27 28 20 8 20 8 -2 20 -13 7 -22 21 -21 34 0 12 3 16 6 10 3 -10 8 -10 19
1 20 20 17 29 -6 23 -23 -6 -26 3 -8 21 10 10 10 17 -1 34 -11 18 -11 23 3 33
9 7 16 23 16 36 0 19 2 21 10 9 8 -13 10 -13 10 0 0 19 17 1 22 -25 4 -17 6
-16 13 8 9 33 -10 63 -31 47 -10 -9 -11 -7 -7 9 6 23 23 27 41 9z m-2365 -448
c-11 -87 -67 -143 -142 -141 -137 2 -191 26 -116 51 33 11 49 39 23 41 -7 0 2
7 20 15 29 13 58 34 177 131 l30 24 7 -38 c4 -21 5 -58 1 -83z m2297 -120 c21
0 34 -31 25 -60 -4 -13 -2 -20 7 -20 11 0 11 -2 0 -9 -18 -11 -24 -79 -10
-113 7 -20 7 -35 -3 -58 -14 -30 -44 -44 -33 -15 4 8 1 15 -5 15 -6 0 -11 9
-11 20 0 11 -5 20 -10 20 -10 0 -10 -79 0 -81 34 -6 50 -3 54 8 3 7 11 13 17
13 8 0 7 -5 -2 -17 -11 -13 -11 -17 -1 -20 21 -8 13 -33 -14 -45 -21 -10 -27
-9 -35 3 -5 8 -7 19 -5 25 3 7 -3 10 -15 7 -10 -3 -19 -10 -20 -17 0 -6 -4 -2
-9 9 -5 12 -9 14 -9 6 -1 -8 -11 -25 -23 -38 -16 -17 -19 -26 -11 -34 6 -6 9
-19 6 -28 -4 -13 -3 -13 5 -2 5 7 7 22 5 32 -3 10 0 19 6 19 6 0 10 -13 9 -28
-1 -15 1 -33 5 -39 8 -12 -12 -53 -25 -53 -4 0 -5 8 -2 18 4 10 -3 7 -18 -10
-13 -16 -29 -28 -35 -28 -6 0 -13 -13 -15 -30 -3 -21 0 -30 9 -30 9 0 11 8 7
24 -4 18 -1 25 14 28 28 8 45 -11 29 -31 -10 -12 -9 -14 6 -8 12 5 17 1 17
-13 0 -11 4 -20 10 -20 12 0 7 -50 -8 -76 -10 -18 -11 -17 -10 6 2 49 -4 96
-10 75 -5 -20 -5 -20 -12 -1 -4 12 -9 16 -13 9 -4 -6 0 -18 8 -26 17 -18 20
-37 4 -37 -5 0 -7 -5 -3 -11 5 -9 -1 -10 -20 -5 -21 5 -27 3 -24 -6 3 -7 14
-14 26 -16 12 -2 22 -10 22 -17 0 -9 6 -12 15 -9 8 4 15 1 15 -5 0 -6 -4 -11
-10 -11 -5 0 -10 -8 -10 -17 0 -15 2 -16 10 -3 7 11 10 4 10 -26 0 -37 12 -73
41 -126 7 -14 5 -18 -10 -18 -11 0 -25 -8 -31 -17 -9 -15 -11 -15 -7 -2 3 9 1
21 -5 27 -8 8 -7 13 5 18 9 3 17 13 17 21 0 12 -3 12 -16 -2 -14 -13 -19 -14
-26 -3 -6 9 -8 8 -6 -7 2 -14 -3 -21 -19 -23 -17 -2 -23 2 -23 15 0 10 -4 14
-8 8 -4 -5 -18 -12 -32 -13 -14 -2 -27 -8 -28 -13 -4 -11 -22 -2 -22 12 0 5
10 9 23 9 18 0 23 5 22 23 -1 18 -7 21 -28 19 -21 -3 -29 2 -37 22 -10 27 -22
36 -17 14 1 -7 -2 -12 -8 -11 -5 1 -10 -14 -10 -33 0 -27 4 -34 20 -34 17 0
17 2 5 10 -12 8 -11 10 7 10 20 0 22 -4 16 -32 -7 -41 -13 -49 -13 -19 0 16
-4 21 -14 18 -18 -7 -40 18 -31 33 4 6 1 17 -5 25 -6 8 -9 18 -6 24 3 5 -1 12
-10 15 -8 3 -12 11 -9 17 5 7 14 4 26 -7 19 -17 19 -17 11 7 -6 13 -16 23 -24
21 -11 -1 -15 8 -16 30 -1 42 6 52 24 33 9 -8 13 -18 10 -23 -2 -4 12 -8 33
-8 35 -1 37 1 34 30 -1 17 0 22 3 12 4 -11 12 -26 20 -34 12 -11 14 -10 14 8
0 13 8 24 20 27 25 7 26 23 2 23 -10 0 -23 12 -29 28 -10 24 -11 23 -7 -18 4
-36 3 -41 -6 -27 -6 9 -15 17 -20 17 -5 0 -11 -8 -13 -17 -3 -10 -5 -4 -4 12
2 29 1 30 -38 28 -27 -2 -35 0 -26 6 9 6 11 16 6 27 -6 16 -8 17 -14 4 -8 -19
-33 -20 -39 -1 -3 10 0 12 11 8 10 -4 18 1 22 14 4 10 12 20 18 20 44 5 65 3
89 -8 32 -15 51 -17 26 -2 -10 5 -18 19 -18 29 0 11 -4 20 -10 20 -5 0 -6 -8
-3 -17 5 -13 2 -15 -11 -10 -10 4 -29 7 -42 7 -14 0 -22 4 -19 10 3 6 17 10
31 10 13 0 24 5 24 11 0 7 -11 9 -27 6 -31 -6 -68 30 -52 50 6 7 6 13 1 17
-20 12 -21 -38 -2 -57 24 -21 24 -27 6 -52 -16 -23 -46 -14 -46 15 0 25 17 27
23 3 4 -17 4 -17 12 1 4 10 4 21 -2 25 -6 3 -16 17 -23 30 -10 19 -10 25 1 32
12 8 12 10 0 18 -9 6 -10 11 -2 15 6 4 11 2 11 -3 0 -6 7 -11 15 -11 8 0 18
-14 23 -32 6 -24 14 -32 35 -35 25 -3 27 -2 21 23 -5 21 -2 31 17 45 23 17 23
19 4 19 -11 0 -31 7 -43 16 -19 13 -22 13 -22 0 0 -8 6 -17 13 -19 6 -3 2 -6
-10 -6 -17 -1 -23 5 -23 19 0 18 -16 25 -42 21 -5 0 -8 6 -8 15 0 9 -8 23 -17
30 -23 16 -11 29 15 15 18 -9 19 -8 14 11 -3 14 -1 19 6 14 7 -4 12 -2 12 3 0
6 -4 11 -10 11 -5 0 -7 8 -4 18 3 9 -1 6 -9 -7 -13 -22 -14 -22 -19 -4 -3 11
1 28 8 38 17 22 18 35 4 35 -5 0 -10 -8 -10 -17 -1 -16 -2 -16 -11 1 -9 14 -8
20 2 27 11 7 9 9 -6 10 -20 1 -20 1 0 6 10 3 29 12 42 20 22 14 23 14 23 -8
l0 -23 22 24 c17 18 23 20 27 9 11 -35 50 -52 76 -33 10 8 26 14 34 14 14 0
14 -2 1 -10 -8 -5 -11 -12 -8 -16 10 -9 51 38 73 84 l19 39 23 -28 c27 -32 31
-98 4 -76 -12 10 -13 8 -7 -13 6 -23 6 -23 -7 -7 -19 23 -27 22 -27 -5 0 -12
3 -18 7 -15 3 4 15 0 24 -9 17 -16 19 -16 25 0 3 9 12 16 20 16 8 0 12 10 11
27 -1 15 4 28 12 31 8 3 11 0 7 -7 -4 -6 -2 -11 3 -11 6 0 11 15 11 33 0 17 3
43 5 57 5 21 4 22 -3 5 -8 -18 -10 -17 -26 14 -16 30 -16 33 -2 28 18 -7 23
18 6 28 -5 3 -9 14 -9 23 1 15 2 15 6 0 2 -10 13 -18 23 -18z m-4447 -15 c13
-2 28 -16 35 -32 9 -22 10 -23 5 -4 -4 19 -2 23 10 18 9 -3 27 3 41 14 l26 21
-10 -27 c-12 -31 -13 -45 -2 -29 4 6 18 15 30 19 22 6 23 5 12 -14 -6 -12 -15
-19 -20 -16 -6 3 -7 -1 -4 -9 6 -16 -31 -76 -47 -76 -5 0 -9 10 -9 23 0 12 -4
18 -8 12 -4 -5 -15 -16 -24 -24 -16 -12 -18 -11 -18 3 0 9 5 15 11 14 6 -2 13
2 16 9 6 16 -35 27 -51 14 -10 -9 -15 -8 -20 4 -6 17 -26 12 -26 -6 0 -6 5 -7
10 -4 6 3 10 -1 10 -9 0 -22 -13 -26 -34 -10 -15 10 -16 16 -8 27 12 14 7 27
-11 27 -5 0 -7 -7 -3 -15 3 -8 4 -15 2 -15 -3 0 -11 -2 -18 -5 -9 -4 -14 2
-14 15 0 11 4 20 8 20 4 0 5 14 1 31 -5 29 -4 31 16 24 12 -4 21 -2 21 5 0 6
10 8 25 5 14 -3 35 -7 48 -10z m-70 -147 c-3 -16 -2 -19 4 -10 13 18 43 4 54
-25 8 -21 12 -23 24 -13 11 9 15 9 15 1 0 -6 -7 -14 -15 -17 -8 -4 -15 -12
-15 -18 0 -7 -9 -22 -20 -34 -11 -12 -20 -28 -20 -37 0 -8 -3 -15 -7 -15 -5 0
-9 -19 -10 -43 -2 -54 -48 -151 -59 -124 -4 12 -9 15 -14 7 -3 -6 -14 -8 -24
-4 -13 5 -14 9 -5 20 6 8 18 14 27 14 8 0 13 3 9 6 -7 7 -67 -18 -67 -28 0 -5
-8 -5 -39 1 -2 1 2 7 8 15 7 8 10 37 7 72 -2 33 -1 50 3 40 5 -14 10 -16 15
-8 4 7 11 10 16 7 5 -3 11 -1 15 5 3 5 -1 10 -9 10 -9 0 -16 4 -16 10 0 5 -7
7 -16 3 -13 -5 -12 1 5 33 12 21 21 44 21 51 0 7 5 13 10 13 6 0 10 -7 10 -15
0 -8 9 -15 19 -15 14 0 21 9 26 31 5 20 11 29 21 25 8 -3 14 1 14 9 0 8 -7 15
-15 15 -8 0 -15 5 -15 10 0 6 7 10 15 10 8 0 15 5 15 10 0 6 4 10 9 10 5 0 7
-10 4 -22z m2105 -136 c38 -29 44 -19 6 10 -42 34 -19 32 30 -2 48 -32 64 -60
24 -39 -18 9 -20 9 -12 0 10 -11 28 -17 56 -20 14 -2 102 -135 124 -189 24
-58 33 -139 14 -127 -6 4 -8 10 -5 15 3 4 -2 10 -10 14 -8 3 -15 11 -15 18 -1
14 -55 78 -67 78 -5 0 -22 14 -40 30 -27 26 -36 29 -57 20 -20 -7 -26 -6 -26
4 0 8 -12 27 -28 43 -49 50 -69 94 -63 136 1 4 18 -3 39 -16 60 -39 82 -48 82
-38 0 5 -27 29 -60 52 -33 23 -60 43 -60 45 0 8 37 -11 68 -34z m-269 -321
c30 -28 55 -25 31 4 -9 10 -9 15 -1 15 18 0 24 -48 11 -95 -7 -24 -9 -48 -5
-54 3 -6 2 -11 -3 -11 -6 0 -13 -12 -17 -27 -3 -16 -20 -54 -36 -86 -16 -32
-29 -60 -29 -64 0 -3 25 -3 55 -1 37 3 56 1 59 -8 3 -7 -2 -10 -15 -7 -16 5
-19 0 -19 -31 0 -20 -2 -36 -4 -36 -2 0 -25 9 -51 21 -37 16 -49 18 -55 8 -9
-13 -1 -44 8 -35 3 3 10 2 16 -3 46 -35 188 4 309 85 65 45 81 64 54 64 -8 0
-22 9 -32 20 -21 23 -14 25 23 6 15 -7 44 -22 65 -32 52 -26 68 -45 74 -91 5
-36 2 -40 -48 -78 -70 -53 -84 -68 -70 -73 6 -2 11 -20 11 -40 0 -26 6 -41 20
-50 11 -7 20 -17 20 -23 0 -5 -5 -7 -12 -3 -8 5 -9 2 -3 -12 4 -10 10 -29 13
-42 2 -13 16 -28 31 -33 30 -12 41 -26 41 -56 0 -13 5 -23 10 -23 16 0 12 -57
-5 -64 -8 -3 -30 -27 -50 -54 -35 -49 -36 -50 -73 -41 -20 4 -47 6 -59 4 -13
-3 -34 -7 -48 -10 -20 -4 -25 -1 -25 15 0 11 6 20 13 20 8 0 8 3 -2 9 -10 7 4
12 47 17 34 3 62 10 62 15 0 4 -9 17 -21 27 -17 16 -18 20 -5 25 13 5 13 9 0
36 -9 17 -13 40 -9 51 5 14 2 20 -9 20 -9 0 -16 6 -16 14 0 11 -16 14 -67 15
-63 0 -90 12 -77 33 5 8 -40 13 -81 9 -11 -1 -32 -10 -47 -21 -36 -27 -56 -25
-70 5 -6 14 -16 25 -23 25 -6 0 -21 17 -32 38 -12 20 -35 47 -52 60 -29 21
-31 27 -31 87 0 54 3 66 20 75 11 6 20 16 20 21 0 6 11 20 25 31 14 11 25 26
25 34 0 8 5 14 11 14 5 0 7 5 4 10 -4 6 6 11 22 11 21 1 23 3 8 6 -32 8 -42
23 -14 23 17 0 20 3 11 9 -8 4 -12 19 -10 32 2 18 10 25 33 27 59 6 72 65 29
134 -21 32 -23 42 -12 49 20 13 23 12 57 -20z m2804 -108 c-8 -20 5 -60 22
-67 8 -3 14 -2 14 2 -1 4 -1 16 0 26 1 20 1 20 17 0 14 -18 15 -18 8 6 -9 35
10 14 29 -30 12 -30 12 -37 1 -48 -8 -7 -14 -23 -14 -35 0 -24 -39 -57 -41
-35 -1 7 -5 2 -9 -12 l-8 -25 -1 27 c-1 15 4 30 9 33 6 4 8 15 5 26 -4 11 -2
19 5 19 15 0 7 25 -8 26 -7 1 -13 2 -14 3 -2 2 -20 4 -40 7 -29 3 -37 1 -41
-13 -3 -13 -7 -8 -12 14 -7 29 -35 55 -35 33 0 -6 5 -10 10 -10 6 0 10 -6 10
-13 0 -7 -9 -13 -20 -13 -29 0 -24 50 5 54 51 7 64 13 59 25 -3 10 4 14 25 14
20 0 28 -4 24 -14z m-288 -220 c-3 -8 -5 -25 -5 -38 0 -18 -4 -22 -20 -18 -14
4 -20 0 -20 -11 0 -23 37 -20 45 3 8 25 34 35 41 16 4 -8 10 -13 14 -10 5 3
11 -7 13 -22 8 -45 6 -74 -3 -68 -5 3 -7 19 -4 34 4 16 1 32 -5 35 -7 5 -11
-1 -11 -14 0 -16 -4 -20 -16 -16 -8 3 -12 2 -9 -3 3 -5 1 -13 -5 -16 -6 -4 -8
-16 -4 -28 6 -20 5 -20 -10 -8 -12 10 -14 17 -6 25 15 15 12 33 -5 33 -9 0
-15 -10 -15 -26 0 -38 -13 -52 -52 -56 -33 -3 -34 -2 -35 33 0 21 1 28 4 17 4
-22 43 -53 43 -35 0 5 7 10 15 10 9 0 15 9 15 21 0 15 -4 19 -16 15 -13 -5
-15 -2 -11 15 5 20 5 20 -14 3 -10 -9 -19 -12 -19 -6 0 6 5 14 11 18 8 4 7 9
-2 15 -8 4 -20 3 -29 -4 -13 -10 -13 -10 -3 4 7 9 10 19 5 23 -4 4 1 12 11 17
9 6 15 14 12 20 -4 5 -1 9 4 9 14 0 14 -6 1 -31 -10 -17 -9 -18 15 -7 21 9 23
14 12 26 -10 13 -9 14 11 3 12 -6 22 -8 21 -4 -4 24 3 40 16 40 10 0 14 -6 10
-14z m-765 -200 c0 -3 -7 -15 -16 -25 -13 -13 -14 -21 -5 -31 9 -12 7 -13 -14
-9 -15 2 -25 0 -25 -7 0 -6 7 -11 15 -11 8 0 24 -9 35 -20 11 -11 25 -20 31
-20 6 0 3 7 -5 16 -21 20 -20 24 3 24 11 0 21 -9 24 -22 5 -17 9 -19 21 -9 11
10 17 8 28 -6 14 -19 35 -23 54 -10 16 9 74 -3 74 -16 0 -5 6 -15 14 -21 8 -6
17 -22 21 -35 7 -21 5 -23 -18 -19 -14 3 -25 1 -24 -4 1 -5 -14 -19 -34 -31
-34 -19 -38 -20 -53 -5 -18 19 -21 38 -6 38 6 0 10 -6 10 -14 0 -19 19 -31 31
-19 6 6 2 16 -11 28 -29 26 -26 49 5 43 14 -3 25 -2 25 1 0 13 -41 31 -53 24
-7 -4 -24 -6 -39 -4 -40 4 -60 -12 -23 -19 22 -4 30 -11 31 -27 1 -17 -4 -22
-20 -19 -11 2 -21 8 -21 14 0 6 -3 14 -7 18 -5 4 -8 2 -8 -4 0 -7 -7 -12 -15
-12 -8 0 -15 -4 -15 -10 0 -5 -7 -10 -15 -10 -8 0 -15 -4 -15 -10 0 -5 7 -10
15 -10 8 0 15 5 15 10 0 6 7 10 15 10 8 0 15 -2 15 -4 0 -2 2 -10 5 -18 8 -19
-76 -10 -91 10 -7 10 -13 12 -18 4 -4 -6 3 -21 15 -33 16 -16 30 -20 60 -17
40 4 47 -4 29 -32 -8 -13 -10 -13 -10 2 0 14 -5 16 -22 9 -13 -5 -22 -16 -22
-24 1 -13 -2 -14 -17 -4 -11 7 -17 18 -14 26 3 8 0 18 -7 23 -22 13 -30 9 -23
-12 6 -20 -9 -28 -20 -11 -7 12 -63 5 -81 -10 -8 -7 -18 -9 -22 -5 -4 4 0 11
8 16 39 22 78 66 71 79 -7 10 -10 10 -16 1 -6 -9 -10 -9 -17 1 -6 10 -11 10
-14 3 -3 -6 -16 -9 -30 -6 -23 4 -24 6 -8 23 16 18 11 44 -7 34 -5 -4 -9 -1
-9 4 0 17 22 13 45 -9 21 -20 21 -20 43 0 27 25 28 40 5 41 -60 5 -73 4 -73
-3 0 -4 -3 -7 -7 -6 -5 0 -16 -2 -26 -7 -11 -5 -23 -3 -30 5 -9 10 -9 12 4 7
10 -3 25 4 38 19 26 30 26 34 1 34 -11 0 -20 4 -20 9 0 13 39 21 46 9 4 -6 9
-6 14 2 4 7 13 9 20 5 9 -6 9 -9 -1 -16 -7 -4 -11 -11 -7 -14 10 -10 58 44 52
60 -5 11 2 13 32 10 29 -4 40 -1 51 15 14 19 33 27 33 13z m1020 -28 c14 4 20
2 20 -9 0 -21 21 -31 31 -15 6 10 9 11 9 2 0 -18 18 -16 37 3 9 8 24 13 34 11
11 -3 21 -1 24 3 3 4 14 6 25 3 11 -3 20 0 20 6 0 6 4 11 9 11 6 0 9 -9 8 -21
-1 -15 -7 -19 -20 -15 -11 2 -29 1 -42 -4 -13 -5 -26 -5 -32 1 -7 7 -9 -7 -5
-39 2 -30 0 -52 -7 -56 -6 -4 -11 -12 -11 -17 0 -6 5 -7 10 -4 24 15 26 -8 3
-33 -27 -30 -73 -40 -73 -16 0 8 4 14 10 14 5 0 6 8 3 18 -6 15 -4 15 13 -2
19 -19 19 -19 25 15 6 41 -2 64 -12 29 -4 -14 -7 -19 -8 -12 -1 7 -5 10 -11 7
-6 -3 -10 4 -10 17 0 18 2 20 10 8 5 -8 10 -11 10 -7 0 5 -9 20 -19 33 -13 17
-22 21 -26 13 -4 -6 -2 -15 5 -19 9 -6 10 -12 1 -26 -6 -11 -11 -14 -12 -6 -1
6 -3 17 -4 22 -1 6 -3 24 -4 40 -1 19 -6 30 -16 30 -8 0 -15 -4 -15 -9 0 -5
-6 -11 -12 -14 -9 -3 -13 6 -14 24 -1 23 2 27 12 18 7 -6 22 -8 34 -4z m-3001
-261 c17 -4 28 -10 25 -15 -9 -15 21 -49 44 -49 25 0 84 -39 77 -51 -9 -13
-80 -20 -105 -10 -21 8 -22 10 -6 10 19 1 18 2 -3 22 -19 18 -27 19 -44 11
-52 -26 -82 -18 -100 25 -13 34 -13 39 2 50 18 14 62 16 110 7z m1943 -78 c6
-11 16 -15 29 -11 13 4 19 2 19 -9 0 -9 4 -16 9 -16 5 0 11 -10 15 -22 5 -19
8 -21 16 -8 8 12 10 12 10 1 0 -10 8 -12 30 -7 17 3 30 1 30 -4 0 -6 7 -10 15
-10 11 0 10 5 -6 21 -11 11 -27 18 -35 15 -8 -3 -14 0 -14 5 0 7 10 9 28 4 15
-4 39 -7 55 -6 15 0 27 -4 27 -10 0 -6 9 -8 20 -4 16 5 20 2 20 -14 0 -25 -22
-27 -44 -6 -8 8 -18 15 -23 15 -4 -1 2 -9 14 -19 21 -18 21 -19 5 -34 -18 -16
-62 -13 -62 4 0 5 -5 9 -11 9 -6 0 -9 -7 -5 -15 3 -10 -1 -15 -14 -15 -22 0
-35 16 -20 25 6 4 8 11 5 16 -9 14 -35 11 -35 -4 0 -16 -22 -15 -63 2 -21 8
-34 8 -50 -1 -30 -15 -44 -31 -40 -43 2 -6 -6 -16 -17 -23 -17 -10 -20 -10
-20 3 0 10 -10 15 -31 15 -17 0 -28 4 -24 10 3 6 15 10 26 10 15 0 19 5 14 19
-5 15 0 21 24 26 20 4 28 11 24 21 -4 10 2 14 21 14 16 0 26 6 26 15 0 11 -14
14 -70 12 -39 -1 -70 -1 -70 0 0 2 17 12 38 23 45 24 119 22 134 -4z m33 -146
c-3 -5 4 -10 16 -10 18 0 19 -2 9 -15 -14 -17 -47 -19 -69 -6 -9 6 -21 5 -33
-2 -26 -17 -22 -28 10 -26 15 1 42 -1 61 -5 26 -6 32 -5 29 5 -3 8 2 19 11 26
25 19 36 15 17 -6 -20 -22 -17 -24 44 -42 34 -10 40 -14 23 -17 -13 -2 -23
-10 -23 -18 0 -11 4 -12 19 -4 27 14 31 13 30 -7 0 -12 -2 -13 -6 -5 -4 10 -8
10 -19 1 -7 -6 -21 -9 -29 -5 -8 3 -15 1 -15 -4 0 -6 -5 -10 -10 -10 -6 0 -22
-12 -35 -27 -14 -17 -24 -22 -25 -14 0 10 -3 11 -14 2 -16 -13 -28 -1 -33 32
-2 14 9 23 20 15 2 -2 11 3 20 11 10 8 27 11 42 7 27 -7 32 -1 13 18 -19 18
-61 15 -76 -6 -9 -12 -22 -17 -38 -14 -21 4 -24 3 -14 -10 10 -11 9 -14 -4
-14 -9 0 -16 7 -16 15 0 8 -4 15 -10 15 -5 0 -10 9 -10 20 0 13 -5 18 -15 14
-8 -4 -15 -1 -15 6 0 6 9 14 20 17 11 3 20 10 20 17 0 12 40 42 53 38 4 -1 7
3 7 8 0 6 12 10 26 10 14 0 23 -4 19 -10z m-1025 -131 c0 -4 -13 -9 -30 -12
-16 -4 -30 -11 -30 -16 0 -6 12 -6 30 -1 28 8 29 7 36 -35 3 -24 3 -57 -1 -73
-4 -18 1 -59 10 -98 12 -45 14 -68 7 -73 -6 -3 -15 -19 -21 -34 -10 -26 -5
-33 22 -28 18 3 18 -33 -1 -59 -12 -15 -18 -30 -15 -33 8 -8 30 16 35 39 4 17
6 16 15 -6 18 -43 26 -77 14 -60 -20 29 -22 1 -2 -36 21 -38 29 -73 11 -44
-10 17 -15 14 -25 -19 -7 -22 -5 -23 21 -17 24 6 26 5 15 -8 -8 -9 -19 -16
-26 -16 -7 0 -15 -7 -19 -15 -4 -10 1 -15 14 -15 11 0 20 -4 20 -10 0 -5 -7
-10 -16 -10 -10 0 -14 -6 -10 -15 3 -8 2 -15 -2 -15 -10 1 -118 220 -114 233
2 5 -1 13 -6 16 -11 8 -82 137 -82 150 0 6 7 7 17 4 12 -5 14 -3 8 7 -6 10 -2
12 18 8 18 -4 24 -1 20 9 -3 9 0 11 10 8 8 -4 17 0 19 7 4 9 -4 14 -23 15 -20
2 -29 -3 -29 -12 0 -8 -2 -15 -4 -15 -2 0 -12 -3 -21 -7 -16 -5 -17 1 -10 68
9 88 19 119 39 119 10 0 13 6 10 15 -4 8 -11 12 -16 9 -13 -8 -13 -9 42 105
l45 92 12 -58 c7 -32 12 -61 13 -64z m1114 -175 c11 -27 7 -54 -9 -60 -17 -7
-21 -34 -5 -34 6 0 10 6 10 13 0 19 32 17 47 -2 7 -9 13 -25 13 -36 1 -11 13
-30 29 -43 21 -18 27 -30 23 -48 -3 -16 -10 -23 -18 -20 -7 3 -16 1 -19 -4 -4
-6 7 -10 24 -10 17 0 31 -4 31 -10 0 -5 -13 -10 -30 -10 -20 0 -30 -5 -30 -15
0 -8 -4 -15 -10 -15 -5 0 -10 -9 -10 -20 0 -13 -5 -18 -16 -13 -10 4 -17 -1
-21 -15 -7 -30 -33 -37 -33 -9 0 18 -2 19 -10 7 -7 -11 -10 -11 -10 -2 0 7 -5
10 -11 7 -6 -4 -8 -13 -5 -21 4 -10 -3 -14 -28 -14 -20 0 -40 -8 -51 -20 -19
-21 -45 -27 -45 -10 0 6 7 10 15 10 8 0 15 7 15 15 0 7 8 19 18 24 14 9 14 10
1 11 -8 0 -20 -5 -26 -11 -6 -6 -22 -12 -37 -13 -35 -4 -71 -49 -46 -58 5 -1
-6 -13 -25 -26 -34 -21 -35 -21 -35 -3 0 11 -4 23 -10 26 -5 3 -10 13 -10 21
0 8 5 14 10 14 6 0 10 -7 10 -15 0 -8 7 -15 15 -15 8 0 15 6 15 14 0 8 5 16
12 18 8 3 5 13 -10 33 -12 15 -22 33 -22 39 0 6 5 4 10 -4 6 -10 10 -11 10 -2
0 6 7 12 16 12 11 0 14 -6 8 -22 -6 -20 -5 -21 9 -10 11 9 17 10 22 2 5 -8 11
-8 21 1 14 12 9 33 -6 24 -4 -3 -10 1 -13 9 -5 11 2 11 34 -2 49 -19 74 -5 46
26 -9 10 -17 22 -17 27 0 4 11 -4 25 -19 14 -15 25 -34 25 -42 0 -14 2 -14 16
0 14 15 28 20 47 17 4 0 7 3 7 8 0 13 -25 20 -52 15 -18 -3 -17 -1 7 10 29 14
31 13 49 -16 14 -22 21 -26 27 -16 5 7 4 14 -1 16 -22 8 -8 24 15 18 14 -4 25
-2 25 3 0 5 3 18 6 28 5 14 4 15 -4 4 -6 -8 -17 -11 -26 -8 -14 6 -14 10 -4
27 7 11 21 20 31 20 10 0 15 -4 12 -10 -7 -11 18 -14 28 -4 8 9 -32 44 -49 44
-7 0 -21 -10 -31 -23 -10 -13 -25 -27 -33 -32 -13 -8 -13 -7 -1 8 12 15 11 17
-6 17 -11 0 -34 -5 -52 -11 -28 -10 -34 -9 -45 7 -11 14 -17 16 -27 7 -11 -8
-19 -6 -33 8 -11 11 -14 19 -8 19 6 0 14 -5 17 -10 4 -7 12 -7 25 0 14 7 23 6
36 -8 16 -15 17 -15 12 -1 -7 18 39 66 50 53 4 -4 1 -9 -5 -11 -7 -3 -13 -11
-13 -19 0 -10 9 -12 33 -7 38 7 99 42 77 44 -8 1 -19 2 -25 4 -5 1 -17 3 -25
3 -19 2 -21 72 -2 72 14 0 16 16 2 25 -13 8 -80 -21 -80 -35 0 -6 12 -9 28 -8
19 2 27 -2 27 -12 0 -21 -43 -26 -51 -6 -3 9 -15 16 -25 16 -12 0 -16 5 -13
15 4 8 12 15 18 15 7 0 21 9 33 19 11 11 31 21 44 24 13 2 27 5 30 6 4 0 10
-6 13 -15z"/>
<path d="M4635 4766 c-20 -15 -19 -15 4 -16 24 0 21 -14 -2 -15 -7 0 -27 -4
-44 -9 -29 -7 -31 -9 -18 -22 7 -8 20 -13 27 -12 7 2 13 -4 13 -12 0 -9 -7
-14 -17 -12 -11 2 -18 -3 -18 -14 0 -10 -5 -14 -14 -11 -10 4 -13 1 -9 -9 4
-11 1 -14 -10 -12 -9 2 -16 -1 -16 -7 0 -5 11 -9 25 -8 28 2 30 -3 9 -24 -17
-16 -12 -33 10 -33 14 0 29 -45 20 -60 -4 -6 1 -10 9 -10 10 0 13 -6 9 -16 -5
-13 -2 -15 15 -10 26 9 36 -8 20 -34 -14 -23 -43 -28 -35 -6 3 8 -2 21 -12 30
-22 20 -31 20 -31 1 0 -9 -6 -12 -15 -9 -8 4 -15 1 -15 -5 0 -6 6 -11 14 -11
7 0 16 -9 19 -21 3 -11 15 -23 26 -26 29 -8 26 -21 -4 -18 -14 2 -25 -1 -25
-7 0 -5 -9 -7 -19 -3 -23 7 -39 -13 -17 -21 16 -6 32 -41 27 -63 -1 -8 2 -10
10 -5 9 5 10 2 6 -9 -4 -10 -2 -17 4 -17 6 0 9 -9 6 -20 -7 -26 9 -36 22 -12
6 11 20 17 37 17 37 -2 67 26 68 65 1 27 2 28 14 13 6 -9 12 -23 12 -30 0 -7
5 -13 11 -13 6 0 8 7 5 16 -4 9 -2 13 5 8 7 -4 9 0 5 14 -5 15 -2 20 10 18 9
0 19 4 21 11 3 7 -3 10 -14 7 -16 -4 -19 1 -18 33 0 28 4 38 15 37 9 -1 17 7
17 18 1 10 -2 16 -6 13 -12 -7 -34 22 -28 37 4 8 6 7 6 -4 1 -21 31 -13 31 9
0 8 -5 11 -12 7 -8 -5 -9 -2 -5 10 4 10 7 23 7 29 0 7 4 6 10 -3 5 -8 10 -10
10 -4 0 6 -11 20 -25 32 -26 23 -48 31 -27 10 16 -16 16 -42 0 -31 -7 4 -20 8
-28 8 -16 0 -17 17 -5 48 4 9 3 17 -3 17 -15 0 -23 -57 -12 -86 6 -15 6 -23 1
-19 -11 6 -8 -41 2 -52 4 -3 1 -13 -7 -22 -8 -10 -12 -29 -9 -48 6 -35 17 -43
27 -18 3 8 1 15 -4 15 -6 0 -10 5 -10 10 0 6 7 10 15 10 18 0 20 17 3 23 -7 2
-9 8 -5 13 14 15 26 -19 25 -68 0 -40 -3 -46 -16 -39 -8 5 -28 5 -44 1 -19 -6
-28 -5 -28 3 0 9 -2 9 -8 1 -4 -6 -18 -17 -31 -24 -23 -12 -24 -11 -18 11 4
13 7 27 7 30 0 3 16 5 36 4 l36 -2 -4 43 c-2 24 -1 44 2 44 3 0 7 11 8 26 1
18 -2 23 -11 17 -6 -4 -4 4 5 19 23 35 6 53 -33 33 -35 -18 -47 -3 -20 24 11
11 21 15 23 10 2 -5 12 -3 23 5 18 14 18 15 3 16 -11 0 -15 5 -12 15 4 8 11
12 16 9 6 -4 6 1 -1 13 -6 12 -8 50 -5 92 3 46 1 71 -5 67 -5 -3 -11 -1 -13 4
-2 7 -11 5 -23 -4z"/>
<path d="M4600 4159 c0 -5 5 -9 10 -9 6 0 10 -7 10 -16 0 -8 5 -12 10 -9 6 3
10 1 10 -4 0 -6 -14 -11 -31 -11 -28 0 -31 -2 -25 -25 4 -14 4 -25 1 -25 -2 0
-8 15 -13 33 -10 37 -33 42 -47 10 -5 -13 -13 -23 -17 -23 -5 0 -8 -4 -8 -10
0 -5 8 -6 17 -3 12 5 15 2 11 -9 -4 -10 -1 -15 10 -14 10 0 17 -6 17 -16 0 -9
8 -25 18 -35 9 -11 17 -25 17 -31 0 -7 7 -12 15 -12 8 0 15 -4 15 -10 0 -5 7
-10 15 -10 8 0 15 8 15 18 0 13 -2 14 -9 4 -6 -10 -10 -7 -15 11 -4 16 -17 29
-37 36 -26 9 -29 14 -20 25 7 8 8 16 4 18 -4 3 -2 3 5 1 8 -1 20 -3 28 -3 8 0
14 -6 14 -14 0 -8 7 -17 16 -20 27 -10 12 37 -16 51 -14 7 -22 13 -17 14 4 1
11 2 16 3 5 0 13 4 17 9 15 15 26 6 20 -18 -4 -14 -2 -25 3 -25 11 0 21 25 21
52 0 15 5 19 20 15 15 -4 20 0 20 15 0 15 -5 19 -19 15 -12 -3 -27 3 -36 13
-16 18 -65 25 -65 9z"/>
<path d="M6180 3936 c0 -9 -5 -14 -10 -11 -6 4 -10 3 -9 -2 4 -23 -16 -54 -38
-59 -16 -4 -22 -11 -19 -21 3 -8 6 -16 6 -19 0 -2 6 -1 14 2 8 3 24 -4 36 -16
12 -12 24 -20 26 -17 2 2 -2 10 -11 17 -21 17 -19 27 6 33 13 4 20 11 16 20
-3 8 5 17 23 24 24 9 27 8 23 -8 -3 -10 3 -28 12 -41 l17 -23 -7 23 c-4 13 -2
22 4 22 6 0 11 -6 11 -14 0 -23 -11 -46 -20 -41 -4 3 -10 -2 -14 -10 -3 -9 0
-15 9 -15 7 0 17 -4 20 -10 3 -5 0 -7 -8 -5 -7 3 -22 -4 -33 -16 -10 -13 -13
-19 -6 -15 16 9 15 -4 -2 -27 -8 -11 -15 -14 -18 -7 -2 6 -11 8 -21 4 -12 -4
-16 -13 -12 -28 5 -18 4 -18 -4 -4 -6 9 -9 37 -7 62 2 26 -1 49 -7 53 -6 4 -8
-2 -4 -16 4 -17 0 -24 -17 -31 -13 -5 -26 -16 -30 -25 -9 -25 -8 -26 14 -13
22 14 25 12 34 -19 5 -14 3 -23 -3 -23 -6 0 -11 -4 -11 -10 0 -5 11 -10 25
-10 14 0 25 5 25 10 0 15 14 12 37 -9 12 -11 24 -17 27 -14 11 11 6 23 -8 23
-21 0 -30 20 -17 33 8 8 11 6 11 -6 0 -9 5 -17 10 -17 14 0 12 37 -2 43 -8 3
-5 6 5 6 14 1 17 6 12 21 -7 22 5 26 23 8 8 -8 12 -9 12 -1 0 6 -5 13 -12 15
-8 3 -7 8 4 18 8 8 13 22 11 31 -4 13 0 17 14 15 10 -2 24 1 31 7 17 13 29 0
14 -15 -7 -7 -12 -18 -12 -26 0 -15 -36 -65 -43 -60 -8 6 -37 -25 -37 -39 0
-12 3 -13 13 -4 8 6 17 8 20 4 4 -3 7 -1 7 6 0 7 5 9 12 5 7 -5 8 -3 3 6 -4 7
-2 16 6 21 21 13 29 11 23 -6 -5 -11 -2 -13 10 -9 9 3 16 10 16 16 0 5 4 6 10
3 6 -4 9 5 8 19 -2 17 -6 22 -12 16 -27 -27 -35 6 -11 44 14 21 14 24 0 29 -8
4 -22 4 -30 1 -8 -4 -15 -1 -15 5 0 6 -5 11 -11 11 -5 0 -7 -5 -3 -12 4 -7 3
-8 -4 -4 -6 4 -19 22 -27 40 -16 33 -57 56 -63 36 -2 -6 -12 -10 -23 -10 -10
0 -19 -6 -19 -14 0 -8 -4 -18 -10 -21 -19 -12 -10 25 11 46 15 15 18 24 10 32
-8 8 -11 6 -11 -7z"/>
<path d="M5907 3660 c-9 -14 -17 -29 -17 -35 0 -5 5 -3 11 5 8 12 9 11 7 -5
-2 -12 -11 -19 -21 -19 -10 1 -17 -5 -17 -15 -1 -14 -2 -14 -11 2 -12 20 -31
13 -22 -8 3 -8 0 -15 -6 -15 -6 0 -11 5 -11 10 0 6 -14 10 -30 10 -23 0 -30 4
-28 16 2 10 -3 19 -9 21 -7 3 -13 -3 -13 -12 0 -11 -5 -15 -15 -11 -10 4 -15
-1 -15 -15 0 -16 5 -18 25 -13 31 8 32 -5 5 -65 -25 -55 -25 -64 0 -49 11 7
20 18 20 25 0 6 5 15 12 19 8 5 9 -4 4 -34 -3 -24 -2 -42 3 -42 6 0 6 -12 1
-29 -6 -22 -4 -33 6 -42 11 -9 14 -8 14 5 0 9 13 23 29 29 23 10 28 16 20 27
-8 13 -11 13 -23 -2 -16 -22 -30 -24 -23 -4 3 8 1 17 -6 19 -9 3 -9 7 0 19 7
8 11 25 8 37 -2 13 2 35 10 50 l15 26 -1 -30 c-1 -16 -1 -41 -1 -54 2 -20 4
-21 17 -11 8 7 22 10 30 6 10 -4 15 1 15 14 0 11 5 20 11 20 5 0 7 -5 3 -12
-4 -7 -3 -8 4 -4 7 4 12 15 12 24 0 15 2 15 10 2 6 -10 6 -16 0 -18 -6 -2 -6
-11 0 -22 12 -23 40 -16 40 9 0 9 4 21 10 27 6 6 6 15 0 24 -7 10 -10 11 -10
3 0 -7 -4 -13 -10 -13 -18 0 -10 19 11 25 13 4 27 1 39 -10 14 -13 20 -13 26
-4 5 9 10 7 15 -7 6 -16 8 -14 8 9 1 16 5 26 11 22 5 -3 7 -13 4 -23 -5 -14
-4 -15 5 -2 17 24 13 38 -19 54 -16 8 -30 10 -30 5 0 -5 5 -9 10 -9 17 0 11
-14 -10 -28 -19 -11 -20 -10 -15 11 5 17 2 26 -10 31 -13 5 -15 2 -10 -15 7
-20 6 -20 -19 2 -14 12 -26 32 -26 43 0 26 -15 9 -24 -26 -5 -22 -3 -28 9 -28
9 0 13 -5 10 -11 -4 -6 -13 -8 -20 -5 -7 2 -18 -1 -24 -7 -8 -8 -11 -7 -11 6
0 9 4 17 10 17 10 0 33 75 27 93 -2 6 -11 0 -20 -13z"/>
<path d="M5985 3430 c-16 -17 -19 -18 -40 -4 -17 11 -29 12 -49 5 -14 -6 -26
-13 -26 -16 0 -4 5 -3 10 0 6 4 13 -7 16 -25 l7 -31 19 21 c25 26 27 25 26 -9
-1 -25 -4 -29 -24 -25 -28 5 -30 -1 -9 -22 8 -9 15 -21 15 -27 0 -9 -2 -9 -8
0 -5 8 -12 9 -22 2 -13 -8 -12 -12 4 -24 11 -8 16 -18 12 -22 -4 -4 -11 -1
-16 7 -7 11 -11 11 -23 1 -13 -10 -16 -8 -22 9 -5 17 -10 19 -21 9 -7 -6 -21
-8 -31 -5 -18 7 -34 -10 -26 -30 3 -9 21 -11 60 -8 33 2 62 -1 70 -7 9 -8 13
-8 13 -1 0 6 7 9 15 6 8 -4 15 -1 15 6 0 6 4 9 8 6 4 -2 9 4 9 15 1 10 -2 19
-8 19 -5 0 -9 -7 -9 -15 0 -8 -4 -15 -10 -15 -13 0 -13 6 0 31 9 15 15 17 30
9 13 -7 20 -6 23 3 3 7 6 5 6 -5 1 -10 5 -18 11 -18 5 0 7 7 4 15 -8 19 16 20
42 0 10 -8 29 -15 40 -15 23 0 40 25 24 35 -6 4 -10 -1 -10 -9 0 -10 -6 -13
-15 -10 -8 4 -13 10 -10 14 3 5 1 11 -4 14 -5 4 -13 1 -17 -5 -5 -9 -10 -8
-18 3 -6 8 -20 20 -31 26 -18 10 -16 11 18 12 20 0 37 4 37 9 0 17 42 24 51
10 6 -10 8 -8 7 7 -3 27 -57 29 -76 2 -15 -21 -42 -24 -43 -5 0 6 -7 -3 -15
-20 -17 -41 -23 -41 -22 -4 1 15 -2 33 -6 40 -6 9 9 15 34 13 3 0 7 10 8 24 2
29 0 30 -23 4z"/>
<path d="M5832 3126 c-5 -6 -5 -26 1 -46 7 -24 12 -30 14 -17 4 14 12 17 33
13 16 -2 34 -7 39 -11 7 -3 11 3 12 17 0 13 3 17 6 10 4 -10 8 -10 19 -1 19
15 48 3 40 -17 -5 -13 -2 -15 13 -11 12 3 22 -1 25 -10 9 -22 8 -23 -11 -16
-12 5 -15 2 -10 -10 8 -22 1 -21 -25 2 -13 13 -19 27 -15 41 5 18 3 19 -11 8
-46 -37 -51 -42 -41 -48 15 -10 -22 -70 -43 -70 -10 0 -18 -4 -18 -9 0 -10 48
-2 56 10 3 5 14 9 25 9 11 0 22 7 25 15 9 22 35 19 28 -2 -5 -14 -4 -15 4 -4
9 12 13 12 27 -2 9 -10 21 -14 27 -11 6 4 5 9 -3 15 -7 4 -10 11 -6 15 4 4 14
-1 21 -12 8 -10 11 -21 7 -24 -4 -3 -5 -16 -1 -30 6 -24 6 -24 13 8 5 23 11
31 19 26 9 -6 9 -9 0 -12 -17 -5 -15 -22 3 -22 8 0 15 7 15 16 0 13 6 15 28
10 l27 -7 -25 21 c-14 11 -28 20 -32 20 -16 0 -7 19 10 23 9 2 -4 7 -30 11
-31 5 -48 13 -48 22 0 8 3 13 8 13 18 -3 32 2 32 11 0 6 -7 10 -15 10 -8 0
-15 5 -15 11 0 6 -7 9 -15 6 -8 -4 -17 -2 -20 3 -4 6 1 10 10 10 9 0 13 5 10
10 -4 7 -14 6 -28 -1 -16 -9 -22 -9 -25 0 -2 6 -7 9 -11 6 -5 -2 -22 0 -39 4
-20 6 -34 5 -41 -2 -8 -8 -14 -8 -19 -2 -10 14 -40 15 -50 1z"/>
<path d="M5763 2813 c-4 -10 -11 -21 -17 -25 -7 -5 -5 -8 6 -8 9 0 19 6 21 13
8 19 27 -13 27 -46 0 -16 3 -26 8 -24 4 3 8 -7 9 -21 1 -31 -23 -53 -54 -47
-13 2 -23 -1 -23 -6 0 -5 8 -10 18 -10 9 -1 24 -2 32 -3 8 0 17 -14 20 -31 7
-40 25 -14 22 32 -2 18 2 33 8 33 5 0 10 -5 10 -11 0 -5 4 -8 9 -4 5 3 12 -3
16 -14 4 -13 12 -17 26 -14 15 4 22 -2 32 -26 13 -35 36 -40 54 -12 11 18 10
19 -17 16 -29 -4 -40 7 -20 20 5 3 7 12 3 20 -6 18 8 20 25 3 9 -9 12 -8 12 6
0 15 -5 17 -30 13 -17 -4 -30 -2 -30 3 0 6 5 10 12 10 6 0 8 3 5 6 -4 4 -13 2
-20 -4 -8 -7 -17 -9 -20 -5 -4 3 -7 -2 -7 -12 0 -14 -3 -15 -15 -5 -9 8 -13
21 -9 32 5 17 3 18 -15 9 -25 -14 -23 -17 -26 42 -3 34 0 45 8 41 7 -4 7 -1
-1 7 -11 12 -14 12 -22 -1 -7 -11 -10 -8 -15 13 -8 30 -32 36 -42 10z"/>
<path d="M4030 2329 c-12 -9 -10 -10 8 -6 14 3 22 1 19 -6 -2 -6 5 -19 15 -29
20 -20 24 -38 8 -38 -5 0 -10 4 -10 8 0 5 -22 8 -50 8 -50 -1 -66 -10 -32 -19
10 -3 6 -5 -10 -6 -32 -1 -36 -12 -11 -32 15 -12 16 -12 10 4 -8 21 15 24 32
4 8 -11 3 -18 -24 -33 -35 -18 -49 -39 -20 -28 11 5 15 -1 15 -20 0 -18 -4
-24 -15 -20 -9 4 -15 0 -15 -10 0 -9 8 -16 17 -16 21 0 6 -16 -22 -23 -16 -4
-14 -5 6 -6 19 -1 28 -8 32 -23 8 -29 3 -32 -21 -17 -11 7 -28 9 -38 5 -16 -6
-12 -10 20 -21 22 -8 43 -12 48 -9 17 11 7 -22 -12 -39 -31 -26 -24 -34 25
-32 25 1 45 -3 45 -7 0 -5 4 -7 10 -3 5 3 6 13 3 23 -6 15 -5 15 8 2 29 -29
29 -47 1 -45 -15 1 -37 7 -49 14 -19 10 -23 9 -23 -4 0 -18 -31 -20 -48 -3
-15 15 -16 0 -1 -39 8 -22 12 -24 19 -13 8 12 11 13 22 2 11 -11 9 -16 -6 -28
-11 -8 -31 -14 -44 -14 -14 0 -22 -5 -19 -12 2 -8 16 -12 32 -10 16 2 31 -2
36 -10 7 -10 9 -9 9 3 0 19 23 31 45 23 18 -7 19 -3 3 31 -6 14 -19 25 -30 25
-10 0 -18 7 -18 15 0 16 36 21 42 5 2 -5 14 -11 28 -13 18 -3 30 3 42 22 14
20 18 22 18 9 0 -13 8 -18 30 -18 42 0 37 16 -10 39 -35 17 -40 17 -40 3 0
-13 -3 -12 -14 3 -15 21 -12 40 5 30 5 -4 9 0 9 7 1 8 7 5 16 -7 11 -15 17
-17 23 -7 4 7 12 12 17 10 5 -2 10 1 12 6 1 6 -10 12 -25 14 -15 2 -31 9 -35
15 -5 8 -14 5 -30 -10 -23 -22 -24 -22 -51 -4 l-28 18 33 14 c17 7 40 21 49
30 16 16 16 17 -2 22 -14 4 -19 1 -17 -11 2 -12 -5 -17 -27 -18 -16 -1 -24 0
-17 3 6 2 12 11 12 19 0 8 -6 14 -12 14 -9 0 -8 4 2 10 8 5 24 7 35 3 17 -5
18 -4 7 10 -10 11 -23 14 -44 10 -22 -4 -29 -3 -24 5 4 7 14 12 22 12 9 0 12
5 8 12 -5 8 -2 9 9 5 9 -3 19 -2 22 3 8 13 35 13 35 0 0 -5 -7 -10 -15 -10 -8
0 -15 -4 -15 -9 0 -5 6 -9 13 -8 31 1 47 -4 47 -14 0 -6 -9 -9 -20 -6 -11 3
-20 2 -20 -3 0 -4 9 -10 21 -13 12 -3 18 -10 14 -16 -8 -15 7 -14 37 2 21 10
23 15 11 25 -12 12 -17 8 -14 -10 0 -5 -4 -8 -10 -8 -7 0 -9 9 -5 24 4 18 1
25 -13 29 -11 3 -22 17 -26 37 l-7 32 -21 -23 c-14 -15 -22 -18 -25 -10 -4 13
30 51 47 51 5 0 16 -8 23 -19 11 -16 73 -41 102 -41 21 0 -34 39 -65 48 -29 7
-34 13 -34 38 0 34 -12 57 -26 49 -5 -3 -6 2 -2 11 4 11 -1 22 -12 30 -22 17
-35 17 -55 3z"/>
<path d="M4070 1730 c-8 -5 -22 -7 -31 -4 -9 2 -24 -2 -32 -11 -18 -17 -43
-20 -52 -5 -9 15 -22 12 -22 -5 0 -8 6 -15 14 -15 7 0 13 -3 13 -8 0 -9 73
-33 79 -26 3 3 -5 7 -17 11 -12 3 -22 9 -22 14 0 13 6 11 52 -11 48 -23 52
-24 43 -10 -3 6 0 10 9 10 8 0 23 3 33 7 15 6 16 4 6 -9 -7 -8 -10 -17 -7 -21
7 -7 37 3 45 16 4 5 12 0 18 -12 7 -11 16 -21 21 -21 14 0 -1 34 -33 74 -24
29 -32 34 -47 26 -13 -7 -21 -7 -25 0 -8 13 -26 13 -45 0z"/>
<path d="M5950 1635 c0 -8 -5 -15 -11 -15 -6 0 -8 -8 -4 -19 4 -14 -1 -21 -25
-29 -20 -7 -30 -8 -30 -1 0 6 -5 7 -11 3 -8 -5 -10 3 -7 25 2 17 3 31 1 31
-12 0 -33 -31 -28 -40 3 -5 -3 -10 -14 -10 -10 0 -21 6 -23 12 -6 16 -38 -13
-39 -34 0 -7 -4 -4 -9 7 -8 21 -15 13 -22 -30 -2 -12 -11 -19 -22 -18 -12 1
-15 -2 -8 -9 7 -7 17 -6 31 1 18 10 20 9 14 -6 -6 -16 -4 -16 15 1 12 11 22
14 22 8 0 -7 5 -12 10 -12 6 0 10 6 10 14 0 7 11 21 25 30 l26 17 -15 -36
c-14 -33 -13 -39 7 -36 4 0 7 -3 7 -9 0 -13 -12 -13 -47 1 -25 9 -30 7 -54
-23 -29 -35 -24 -58 13 -58 21 0 17 -7 -37 -61 -24 -25 -27 -33 -18 -47 6 -9
16 -16 22 -15 6 2 8 -5 4 -15 -6 -15 -5 -15 10 -3 9 7 15 17 12 21 -13 21 66
34 82 13 6 -8 18 -16 26 -17 8 -1 22 -8 30 -14 11 -9 17 -10 22 -2 4 7 -2 14
-14 17 -25 6 -38 47 -22 67 6 7 8 16 4 20 -4 4 1 4 12 0 14 -6 17 -4 12 9 -4
11 -2 14 8 11 7 -3 16 -12 19 -20 3 -9 11 -12 18 -8 8 5 9 0 6 -14 -4 -15 -2
-22 8 -22 8 0 18 -8 21 -17 6 -15 7 -14 13 3 5 13 1 23 -12 32 -20 15 -16 34
7 26 7 -3 18 4 25 15 9 18 8 21 -8 21 -10 0 -27 9 -37 20 -17 18 -17 20 -1 20
17 0 66 46 66 62 0 10 -36 -7 -45 -21 -3 -5 -21 -8 -39 -5 -22 2 -40 -1 -50
-11 -22 -23 -49 -19 -43 6 3 12 0 22 -9 26 -11 4 -11 7 1 19 7 8 19 14 25 14
6 0 22 11 37 24 15 14 43 26 71 30 43 6 48 4 69 -23 18 -23 29 -28 51 -25 56
9 78 9 95 1 18 -8 22 0 8 21 -5 9 -21 11 -52 7 -68 -10 -81 -8 -106 19 -18 20
-30 24 -52 20 -20 -4 -30 -1 -34 10 -4 9 -2 16 3 16 6 0 10 5 10 10 0 6 -7 10
-15 10 -8 0 -15 -7 -15 -15z"/>
</g>
</svg>
